<?xml version="1.0" encoding="UTF-8"?>
<!DOCTYPE svg PUBLIC "-//W3C//DTD SVG 1.1//EN" "http://www.w3.org/Graphics/SVG/1.1/DTD/svg11.dtd">
<svg xmlns="http://www.w3.org/2000/svg" version="1.1" width="200px" height="200px" style="shape-rendering:geometricPrecision; text-rendering:geometricPrecision; image-rendering:optimizeQuality; fill-rule:evenodd; clip-rule:evenodd" xmlns:xlink="http://www.w3.org/1999/xlink">
<g><path style="opacity:0.483" fill="#b83245" d="M 87.5,8.5 C 87.5,18.8333 87.5,29.1667 87.5,39.5C 82.4678,40.3414 77.4678,41.3414 72.5,42.5C 72.5,32.1667 72.5,21.8333 72.5,11.5C 77.344,9.86452 82.344,8.86452 87.5,8.5 Z"/></g>
<g><path style="opacity:0.495" fill="#c03b46" d="M 108.5,8.5 C 105.167,8.5 101.833,8.5 98.5,8.5C 98.5,18.5 98.5,28.5 98.5,38.5C 94.8212,38.7244 91.1545,39.0578 87.5,39.5C 87.5,29.1667 87.5,18.8333 87.5,8.5C 94.642,7.26199 101.642,7.26199 108.5,8.5 Z"/></g>
<g><path style="opacity:0.492" fill="#c43740" d="M 108.5,8.5 C 109.833,8.5 111.167,8.5 112.5,8.5C 112.5,19.1667 112.5,29.8333 112.5,40.5C 107.763,40.049 103.097,39.3823 98.5,38.5C 98.5,28.5 98.5,18.5 98.5,8.5C 101.833,8.5 105.167,8.5 108.5,8.5 Z"/></g>
<g><path style="opacity:0.483" fill="#cb3b3c" d="M 112.5,8.5 C 117.585,9.11699 122.585,10.117 127.5,11.5C 127.5,23.1667 127.5,34.8333 127.5,46.5C 122.659,44.1085 117.659,42.1085 112.5,40.5C 112.5,29.8333 112.5,19.1667 112.5,8.5 Z"/></g>
<g><path style="opacity:0.48" fill="#b12e48" d="M 72.5,11.5 C 72.5,21.8333 72.5,32.1667 72.5,42.5C 67.5247,45.1249 62.5247,47.7915 57.5,50.5C 57.5,39.5 57.5,28.5 57.5,17.5C 62.1049,14.7376 67.1049,12.7376 72.5,11.5 Z"/></g>
<g><path style="opacity:0.485" fill="#d13d37" d="M 127.5,11.5 C 132.076,13.1288 136.409,15.1288 140.5,17.5C 140.5,29.8333 140.5,42.1667 140.5,54.5C 136.334,51.5825 132.001,48.9159 127.5,46.5C 127.5,34.8333 127.5,23.1667 127.5,11.5 Z"/></g>
<g><path style="opacity:0.478" fill="#ab2b4b" d="M 57.5,17.5 C 57.5,28.5 57.5,39.5 57.5,50.5C 53.1927,54.4718 48.8593,58.4718 44.5,62.5C 44.5,50.1667 44.5,37.8333 44.5,25.5C 48.3233,22.0843 52.6566,19.4176 57.5,17.5 Z"/></g>
<g><path style="opacity:0.482" fill="#d74133" d="M 140.5,17.5 C 145.284,19.0579 149.618,21.3912 153.5,24.5C 153.5,39.5 153.5,54.5 153.5,69.5C 149.569,64.2299 145.236,59.2299 140.5,54.5C 140.5,42.1667 140.5,29.8333 140.5,17.5 Z"/></g>
<g><path style="opacity:0.476" fill="#a5284d" d="M 44.5,25.5 C 44.5,37.8333 44.5,50.1667 44.5,62.5C 39.7121,69.079 35.7121,76.079 32.5,83.5C 32.5,67.5 32.5,51.5 32.5,35.5C 35.7524,31.2157 39.7524,27.8824 44.5,25.5 Z"/></g>
<g><path style="opacity:0.489" fill="#dd432f" d="M 153.5,24.5 C 158.152,27.8207 162.485,31.4874 166.5,35.5C 166.5,62.5 166.5,89.5 166.5,116.5C 162.215,117.295 157.881,117.628 153.5,117.5C 153.5,106.833 153.5,96.1667 153.5,85.5C 155.167,85.5 156.833,85.5 158.5,85.5C 157.634,79.9017 155.967,74.5684 153.5,69.5C 153.5,54.5 153.5,39.5 153.5,24.5 Z"/></g>
<g><path style="opacity:0.477" fill="#a2264d" d="M 32.5,35.5 C 32.5,51.5 32.5,67.5 32.5,83.5C 26.4806,107.036 30.4806,128.703 44.5,148.5C 44.5,157.167 44.5,165.833 44.5,174.5C 37.5,169.5 31.5,163.5 26.5,156.5C 26.5,118.5 26.5,80.5 26.5,42.5C 27.7997,39.5677 29.7997,37.2344 32.5,35.5 Z"/></g>
<g><path style="opacity:0.492" fill="#e1452c" d="M 166.5,35.5 C 168.833,37.1667 170.833,39.1667 172.5,41.5C 172.5,65.8333 172.5,90.1667 172.5,114.5C 170.579,115.363 168.579,116.029 166.5,116.5C 166.5,89.5 166.5,62.5 166.5,35.5 Z"/></g>
<g><path style="opacity:0.481" fill="#e54729" d="M 172.5,41.5 C 186.204,56.4472 192.038,74.1138 190,94.5C 188.083,104.71 182.249,111.377 172.5,114.5C 172.5,90.1667 172.5,65.8333 172.5,41.5 Z"/></g>
<g><path style="opacity:0.491" fill="#9e244f" d="M 26.5,42.5 C 26.5,80.5 26.5,118.5 26.5,156.5C 24.0252,154.23 22.0252,151.563 20.5,148.5C 20.5,116.167 20.5,83.8333 20.5,51.5C 21.7589,47.9754 23.7589,44.9754 26.5,42.5 Z"/></g>
<g><path style="opacity:0.476" fill="#9a2350" d="M 20.5,51.5 C 20.5,83.8333 20.5,116.167 20.5,148.5C 3.94974,120.286 2.1164,90.9531 15,60.5C 16.3571,57.1019 18.1904,54.1019 20.5,51.5 Z"/></g>
<g><path style="opacity:0.487" fill="#d13d37" d="M 140.5,84.5 C 140.5,95.5 140.5,106.5 140.5,117.5C 136.167,117.5 131.833,117.5 127.5,117.5C 127.5,107.167 127.5,96.8333 127.5,86.5C 131.714,85.298 136.048,84.6314 140.5,84.5 Z"/></g>
<g><path style="opacity:0.491" fill="#d74033" d="M 140.5,84.5 C 144.898,84.2941 149.232,84.6274 153.5,85.5C 153.5,96.1667 153.5,106.833 153.5,117.5C 149.167,117.5 144.833,117.5 140.5,117.5C 140.5,106.5 140.5,95.5 140.5,84.5 Z"/></g>
<g><path style="opacity:0.482" fill="#cb3b3c" d="M 127.5,86.5 C 127.5,96.8333 127.5,107.167 127.5,117.5C 122.5,117.5 117.5,117.5 112.5,117.5C 112.5,108.833 112.5,100.167 112.5,91.5C 117.085,88.8605 122.085,87.1938 127.5,86.5 Z"/></g>
<g><path style="opacity:0.473" fill="#c43740" d="M 112.5,91.5 C 112.5,100.167 112.5,108.833 112.5,117.5C 107.952,118.491 103.285,119.491 98.5,120.5C 98.5,113.5 98.5,106.5 98.5,99.5C 102.542,95.81 107.209,93.1434 112.5,91.5 Z"/></g>
<g><path style="opacity:0.457" fill="#be3442" d="M 98.5,99.5 C 98.5,106.5 98.5,113.5 98.5,120.5C 94.7143,121.893 91.0477,123.559 87.5,125.5C 87.5,120.5 87.5,115.5 87.5,110.5C 90.1667,105.833 93.8333,102.167 98.5,99.5 Z"/></g>
<g><path style="opacity:0.41" fill="#b93245" d="M 87.5,110.5 C 87.5,115.5 87.5,120.5 87.5,125.5C 82.4655,128.032 78.1322,131.532 74.5,136C 73.8333,136.667 73.1667,136.667 72.5,136C 75.6091,126.266 80.6091,117.766 87.5,110.5 Z"/></g>
<g><path style="opacity:0.457" fill="#ab2b4b" d="M 44.5,148.5 C 48.8052,153.141 53.1386,157.807 57.5,162.5C 57.5,169.167 57.5,175.833 57.5,182.5C 52.9994,180.084 48.6661,177.417 44.5,174.5C 44.5,165.833 44.5,157.167 44.5,148.5 Z"/></g>
<g><path style="opacity:0.464" fill="#b12e48" d="M 57.5,162.5 C 62.5229,165.867 67.5229,169.2 72.5,172.5C 72.5,177.5 72.5,182.5 72.5,187.5C 67.3027,186.434 62.3027,184.768 57.5,182.5C 57.5,175.833 57.5,169.167 57.5,162.5 Z"/></g>
<g><path style="opacity:0.459" fill="#b83245" d="M 72.5,172.5 C 77.5758,174.52 82.5758,176.52 87.5,178.5C 87.5,182.5 87.5,186.5 87.5,190.5C 82.2062,190.375 77.2062,189.375 72.5,187.5C 72.5,182.5 72.5,177.5 72.5,172.5 Z"/></g>
<g><path style="opacity:0.477" fill="#c03c47" d="M 87.5,178.5 C 91.2215,178.911 94.8881,179.578 98.5,180.5C 98.5,183.833 98.5,187.167 98.5,190.5C 100.167,190.5 101.833,190.5 103.5,190.5C 98.2971,191.757 92.9638,191.757 87.5,190.5C 87.5,186.5 87.5,182.5 87.5,178.5 Z"/></g>
<g><path style="opacity:0.421" fill="#cc3b3b" d="M 112.5,189.5 C 112.5,186.5 112.5,183.5 112.5,180.5C 117.552,180.55 122.552,180.05 127.5,179C 150.798,170.694 151.465,172.361 129.5,184C 123.981,186.34 118.314,188.173 112.5,189.5 Z"/></g>
<g><path style="opacity:0.462" fill="#c43740" d="M 98.5,180.5 C 103.259,180.891 107.925,180.891 112.5,180.5C 112.5,183.5 112.5,186.5 112.5,189.5C 109.57,190.299 106.57,190.632 103.5,190.5C 101.833,190.5 100.167,190.5 98.5,190.5C 98.5,187.167 98.5,183.833 98.5,180.5 Z"/></g>
</svg>
