<?xml version="1.0" encoding="UTF-8"?>
<svg version="1.1" xmlns="http://www.w3.org/2000/svg" width="900" height="900">
<path d="M0 0 C0.66 0.33 1.32 0.66 2 1 C2.04593781 37.19586041 2.08110013 73.39171565 2.10213066 109.58759929 C2.1046316 113.87635205 2.10722029 118.16510475 2.10986328 122.45385742 C2.11065021 123.7343925 2.11065021 123.7343925 2.11145304 125.04079697 C2.12011787 138.80138246 2.13586582 152.56195096 2.15430559 166.32252642 C2.17311452 180.47833074 2.18413975 194.63412626 2.18817699 208.78994256 C2.19089945 217.50061913 2.19944659 226.21124767 2.21583293 234.92190943 C2.22653611 240.92306474 2.22957108 246.9241958 2.22700275 252.92535993 C2.22574178 256.36993186 2.22860042 259.81435506 2.23841095 263.25892258 C2.30347885 287.31636232 1.39587197 311.35972097 -2.125 335.1875 C-2.22948456 335.9009256 -2.33396912 336.6143512 -2.44161987 337.34939575 C-14.83371263 420.9461227 -54.08665057 500.19426498 -105 567 C-105.80995022 568.07417774 -106.61984596 569.14839657 -107.4296875 570.22265625 C-113.59593468 578.35554295 -120.03335284 586.26612415 -126.49853516 594.16210938 C-127.84196561 595.80655563 -129.17738431 597.45753952 -130.51171875 599.109375 C-134.82722119 604.44161886 -139.2757824 609.60780839 -143.89453125 614.6796875 C-145.72917685 616.70154184 -147.52768786 618.74678522 -149.3125 620.8125 C-159.90845594 632.92012877 -171.16924854 644.32666081 -182.55566406 655.68603516 C-185.26223325 658.38720886 -187.96336896 661.09373429 -190.6640625 663.80078125 C-192.4059292 665.54198765 -194.1481058 667.28288409 -195.890625 669.0234375 C-196.68664124 669.82147797 -197.48265747 670.61951843 -198.30279541 671.44174194 C-202.50231083 675.6238737 -206.77696641 679.65364196 -211.27537537 683.51348877 C-213.85158284 685.73400752 -216.32379296 688.05684771 -218.8125 690.375 C-223.46038542 694.6687538 -228.24416348 698.7353184 -233.17578125 702.703125 C-235.66271463 704.72569323 -238.10366776 706.79247603 -240.53344727 708.88305664 C-248.11258958 715.39258538 -256.00822313 721.44199414 -263.97802734 727.46289062 C-266.40542654 729.30820641 -268.80771001 731.18414331 -271.20898438 733.06323242 C-273.78513072 735.07025752 -276.3886845 737.03902483 -279 739 C-279.54060059 739.40718262 -280.08120117 739.81436523 -280.63818359 740.23388672 C-282.24289427 741.42759449 -283.8711866 742.58939606 -285.5 743.75 C-286.4384375 744.42546875 -287.376875 745.1009375 -288.34375 745.796875 C-291 747 -291 747 -293.49609375 746.45703125 C-296.35876063 744.79123602 -298.9389729 742.96136376 -301.5625 740.9375 C-302.62353576 740.12478825 -303.68473847 739.31229443 -304.74609375 738.5 C-305.28476074 738.08492187 -305.82342773 737.66984375 -306.37841797 737.2421875 C-308.94011805 735.2798373 -311.53509229 733.36238624 -314.125 731.4375 C-318.67962833 728.02152875 -323.15757465 724.52705477 -327.5859375 720.94921875 C-329.16745107 719.67223611 -330.75579199 718.4036525 -332.3515625 717.14453125 C-339.74649691 711.3032557 -346.87859532 705.16888872 -354 699 C-355.14855469 698.00613281 -355.14855469 698.00613281 -356.3203125 696.9921875 C-365.13200862 689.32208764 -373.75956956 681.44173209 -382.34765625 673.52294922 C-383.47162481 672.48699829 -384.59666618 671.45221039 -385.72265625 670.41845703 C-393.2916101 663.46292115 -400.71783124 656.38089658 -408 649.125 C-408.69375732 648.43583496 -409.38751465 647.74666992 -410.10229492 647.03662109 C-413.98337676 643.14382808 -417.67254815 639.14414488 -421.26269531 634.98242188 C-424.2034754 631.62672566 -427.29953792 628.4192469 -430.375 625.1875 C-435.48096238 619.78568515 -440.33733848 614.31128023 -444.96875 608.49609375 C-447.02216169 605.97276669 -449.17188057 603.58067727 -451.375 601.1875 C-456.37602854 595.68550487 -460.91848173 589.86125839 -465.45947266 583.98193359 C-467.07774783 581.89997514 -468.71478066 579.83386459 -470.35546875 577.76953125 C-478.7492205 567.16844235 -486.49539652 556.24390648 -494 545 C-495.24978346 543.13787548 -496.49978963 541.27590042 -497.75 539.4140625 C-504.19997276 529.78643195 -504.19997276 529.78643195 -506.4765625 526.30712891 C-507.48965091 524.77288444 -508.52624216 523.2538962 -509.5859375 521.75146484 C-510.06289063 521.05359863 -510.53984375 520.35573242 -511.03125 519.63671875 C-511.45986328 519.02916748 -511.88847656 518.42161621 -512.33007812 517.7956543 C-513 516 -513 516 -512.25112915 514.11122131 C-510.92098732 511.86666983 -509.50195904 510.26120379 -507.65185547 508.42480469 C-506.97130096 507.74440125 -506.29074646 507.0639978 -505.58956909 506.36297607 C-504.85618317 505.63991272 -504.12279724 504.91684937 -503.3671875 504.171875 C-502.61535187 503.42286926 -501.86351624 502.67386353 -501.08889771 501.90216064 C-498.68892099 499.5133698 -496.28207991 497.13163103 -493.875 494.75 C-492.24563648 493.13066831 -490.61672466 491.51088198 -488.98828125 489.890625 C-484.99741194 485.92179495 -481.00088585 481.95873101 -477 478 C-473.37913255 479.20695582 -473.16034764 479.96856473 -471.35546875 483.20703125 C-470.85072021 484.09374512 -470.34597168 484.98045898 -469.82592773 485.89404297 C-469.28524658 486.85713379 -468.74456543 487.82022461 -468.1875 488.8125 C-461.73460344 500.01358223 -454.61720232 510.56407771 -447 521 C-446.48050781 521.71381836 -445.96101563 522.42763672 -445.42578125 523.16308594 C-438.40698979 532.76656089 -431.0164842 542.04277479 -423.45605469 551.22363281 C-422.16038703 552.80432998 -420.87987367 554.39742145 -419.6015625 555.9921875 C-414.23757341 562.67296814 -408.51573486 568.94726747 -402.66186523 575.19458008 C-401.48280845 576.47548575 -400.31978653 577.77123497 -399.16821289 579.0769043 C-392.57257168 586.546676 -385.5709668 593.58109945 -378.51586914 600.61450195 C-376.43454811 602.69044426 -374.35865187 604.77170422 -372.28320312 606.85351562 C-370.93782062 608.19823752 -369.59212806 609.54264929 -368.24609375 610.88671875 C-367.63753036 611.49730637 -367.02896698 612.10789398 -366.40196228 612.73698425 C-362.64252588 616.47636896 -358.76211392 620.02662316 -354.74740601 623.4907074 C-352.52334399 625.41170362 -350.35645255 627.39217473 -348.1875 629.375 C-343.94694317 633.19792623 -339.59757431 636.8468501 -335.15625 640.43359375 C-332.80091325 642.33779526 -330.47469982 644.27372361 -328.15625 646.22265625 C-318.68210209 654.1600947 -308.94426877 661.57499507 -298.83666992 668.68823242 C-297 670 -297 670 -295.0168457 671.7277832 C-293.11536025 673.20420804 -293.11536025 673.20420804 -291.01000977 672.86523438 C-288.69283868 671.86777849 -286.86595352 670.66211424 -284.83984375 669.15625 C-284.05158203 668.57383545 -283.26332031 667.9914209 -282.45117188 667.39135742 C-281.62166016 666.76720947 -280.79214844 666.14306152 -279.9375 665.5 C-278.65649414 664.54540894 -278.65649414 664.54540894 -277.34960938 663.5715332 C-271.08569844 658.87895072 -264.99470794 654.03212368 -259 649 C-257.23037027 647.56101857 -255.45949899 646.12356286 -253.6875 644.6875 C-243.34418424 636.21541088 -233.27493413 627.4659245 -223.47998047 618.36669922 C-222.01817453 617.01678341 -220.54235082 615.68209881 -219.06640625 614.34765625 C-212.06306862 608.00458494 -205.31628451 601.42113739 -198.625 594.75 C-197.78066406 593.91025635 -196.93632813 593.0705127 -196.06640625 592.20532227 C-191.73457301 587.86276242 -187.55340029 583.45190572 -183.55517578 578.80029297 C-181.30942776 576.20058403 -178.96653513 573.70131023 -176.625 571.1875 C-172.30767249 566.51354626 -168.21162501 561.70592264 -164.22265625 556.74609375 C-161.98316013 553.97919432 -159.68242858 551.27287328 -157.375 548.5625 C-97.70851464 477.01839392 -57.65683592 389.05739955 -55.9413662 250.27784348 C-55.98337909 242.37614492 -56.00580813 234.47444076 -56.02497864 226.57266235 C-56.03185046 223.84916462 -56.03888303 221.12566732 -56.04598713 218.40217018 C-56.04775878 217.72250806 -56.04953044 217.04284594 -56.05135578 216.342588 C-56.07167594 208.68036476 -56.0968836 201.01815976 -56.1237793 193.35595703 C-56.12744313 192.3100823 -56.12744313 192.3100823 -56.13118098 191.24307878 C-56.17144887 179.86877576 -56.2233479 168.49454389 -56.27749296 157.12029986 C-56.33291755 145.37502776 -56.36908684 133.62979324 -56.3891018 121.88440764 C-56.40371273 114.03084334 -56.44043168 106.17779549 -56.49362409 98.32440257 C-56.52133631 93.4577189 -56.52814063 88.59117419 -56.52895164 83.72441864 C-56.53352211 81.46971562 -56.54669722 79.21501114 -56.56911087 76.96041489 C-56.59846798 73.8834931 -56.59695826 70.80806203 -56.58781433 67.73104858 C-56.611707 66.39465696 -56.611707 66.39465696 -56.63608235 65.03126752 C-56.57282912 59.01476941 -55.1449697 55.39493778 -51 51 C-49.37373596 49.61767557 -47.7074998 48.28062485 -46 47 C-43.15914913 44.30483379 -40.56511591 41.50444254 -38.0625 38.5 C-36.08346868 36.14669592 -34.07574176 34.12437549 -31.6875 32.1875 C-28.96924803 30.28130489 -28.96924803 30.28130489 -28 28 C-27.34 28 -26.68 28 -26 28 C-26 27.34 -26 26.68 -26 26 C-24.35648543 24.63823078 -22.68477344 23.31037934 -21 22 C-19.31002677 20.35697047 -17.64783606 18.68528688 -16 17 C-14.50136799 15.49863326 -13.00124224 13.99875673 -11.5 12.5 C-10.72527344 11.72398437 -9.95054687 10.94796875 -9.15234375 10.1484375 C-7.89988872 8.89825553 -6.64386653 7.6515899 -5.37890625 6.4140625 C-3.27297102 4.35187074 -1.64966193 2.47449289 0 0 Z " fill="#043261" transform="translate(751,118)"/>
<path d="M0 0 C192.06 0 384.12 0 582 0 C582 3 582 3 579.5090332 5.83154297 C578.36395136 6.97614823 577.21057171 8.11248855 576.05078125 9.2421875 C575.44115036 9.84757355 574.83151947 10.45295959 574.20341492 11.07669067 C572.24669189 13.0165991 570.27983663 14.94586175 568.3125 16.875 C567.00517459 18.16727636 565.69852557 19.46023736 564.39257812 20.75390625 C561.97854392 23.14344683 559.56060412 25.52887889 557.13793945 27.90966797 C553.65367571 31.3366332 550.1712601 34.76181075 546.8125 38.3125 C545 40 545 40 543 40 C542.7525 40.5775 542.505 41.155 542.25 41.75 C540.81700012 44.32939979 539.21575324 46.06121592 537 48 C536.34 48 535.68 48 535 48 C534.731875 48.598125 534.46375 49.19625 534.1875 49.8125 C532.89666155 52.19036031 532.19492055 53.40810542 530 55 C527.33151277 55.29141155 524.8971772 55.39709291 522.22822285 55.36914349 C521.42447219 55.37260502 520.62072153 55.37606655 519.79261479 55.37963298 C517.07634729 55.38762758 514.36060419 55.37407067 511.6443634 55.36076355 C509.68661759 55.36207074 507.72887228 55.36469557 505.77112979 55.36853105 C500.37349522 55.37526487 494.97603796 55.36320364 489.578426 55.34819686 C483.7645184 55.33528238 477.95062139 55.3396227 472.13670349 55.34190369 C462.05775888 55.34347933 451.97887239 55.33403973 441.8999424 55.31719017 C427.32737882 55.29284415 412.75484218 55.28498938 398.1822606 55.2812262 C374.54116902 55.27492174 350.90010772 55.25470068 327.2590332 55.22631836 C304.28930828 55.19877381 281.31959164 55.17751869 258.34985352 55.16479492 C257.64206559 55.16440034 256.93427767 55.16400576 256.20504163 55.16359923 C249.09726898 55.15964374 241.98949628 55.15581628 234.88172351 55.15208265 C220.40183602 55.14447362 205.92194908 55.13600986 191.44206238 55.12702942 C190.7762725 55.12661755 190.11048262 55.12620568 189.42451729 55.12578133 C144.94966555 55.09817037 100.47483081 55.05057142 56 55 C55.90809634 97.19160737 55.83778573 139.38320302 55.79573868 181.57489096 C55.79073689 186.57564361 55.7855595 191.57639607 55.78027344 196.57714844 C55.77869957 198.07025352 55.77869957 198.07025352 55.77709392 199.59352234 C55.75977082 215.63208463 55.7282787 231.67058856 55.69138882 247.70911643 C55.6537524 264.21198772 55.63171666 280.71482881 55.62364602 297.21774125 C55.61820484 307.37025794 55.60113194 317.52260955 55.56833413 327.67507532 C55.54690459 334.67240125 55.54086281 341.66964404 55.54599449 348.66700026 C55.54851303 352.68160089 55.54514516 356.69591684 55.5231781 360.71046448 C55.36491562 391.19570334 57.76772855 421.30241955 65 451 C65.21881836 451.93489258 65.43763672 452.86978516 65.66308594 453.83300781 C69.11058899 468.49865576 73.81718004 482.53466736 79.15551758 496.6159668 C79.43419678 497.40269775 79.71287598 498.18942871 80 499 C80.24397522 499.63098099 80.48795044 500.26196198 80.73931885 500.9120636 C81 503 81 503 79.82115173 504.88244629 C79.22524734 505.51227417 78.62934296 506.14210205 78.01538086 506.79101562 C77.36447479 507.48815674 76.71356873 508.18529785 76.04293823 508.90356445 C75.03168381 509.94130005 75.03168381 509.94130005 74 511 C73.40792755 511.61512451 72.8158551 512.23024902 72.20584106 512.86401367 C70.40588852 514.70877013 68.58398829 516.52890068 66.75390625 518.34375 C65.76994118 519.32559265 65.76994118 519.32559265 64.76609802 520.32727051 C62.70059855 522.38723823 60.63162405 524.44367366 58.5625 526.5 C57.14885566 527.9086205 55.73544214 529.31747267 54.32226562 530.7265625 C50.88416851 534.15372133 47.44295344 537.57772019 44 541 C41.83850806 538.83850806 41.07339305 537.19457047 39.86328125 534.40625 C39.45440674 533.46765137 39.04553223 532.52905273 38.62426758 531.56201172 C38.19138428 530.55154785 37.75850098 529.54108398 37.3125 528.5 C36.86479248 527.4598877 36.41708496 526.41977539 35.95581055 525.34814453 C21.55914326 491.69312844 11.24388856 457.10248386 5 421 C4.84692383 420.14937988 4.69384766 419.29875977 4.53613281 418.42236328 C0.05212917 393.4681273 -0.29229756 368.54050007 -0.23214546 343.27372205 C-0.2232939 338.58696479 -0.22634235 333.90021092 -0.2277813 329.21344757 C-0.22883658 320.15153402 -0.21968097 311.0896607 -0.20677864 302.02775744 C-0.19227991 291.52663919 -0.19078377 281.0255445 -0.18920898 270.52441406 C-0.17874282 242.84960308 -0.15082031 215.17480092 -0.125 187.5 C-0.08375 125.625 -0.0425 63.75 0 0 Z " fill="#A5C2E4" transform="translate(167,39)"/>
<path d="M0 0 C-2.72955156 2.89269717 -5.46569899 5.05292612 -8.8125 7.1875 C-21.07099482 15.67831038 -26.19213004 28.78393113 -29 43 C-32.35626805 61.8993735 -30.45075257 84.38206262 -20.1875 100.9375 C-13.58145731 110.02714442 -4.85508799 115.86039086 6.23828125 117.74609375 C19.73856871 118.98728001 32.37215506 115.34904639 43 107 C45.72726111 104.72956654 48.38981701 102.40392875 51 100 C51.66 100.33 52.32 100.66 53 101 C52.03218537 110.04177506 45.95555603 116.6664799 39.1875 122.375 C26.94779454 131.50799123 12.98976419 134.54855011 -2.0546875 132.60546875 C-19.16787728 129.36274942 -33.40134295 119.24935437 -43.4375 105.1875 C-54.40633751 87.51421711 -56.11328609 66.66116702 -51.80029297 46.65039062 C-48.41772033 32.60543436 -41.5385286 18.87665552 -29.40234375 10.44140625 C-20.394231 5.0365386 -10.7883386 -0.52626042 0 0 Z " fill="#0D3863" transform="translate(582,283)"/>
<path d="M0 0 C4.15356516 1.47409336 7.541556 3.5361571 11.1875 6 C12.23292969 6.70125 13.27835937 7.4025 14.35546875 8.125 C17 10 17 10 19 12 C19.24774647 13.91880512 19.24774647 13.91880512 19.24482727 16.30696106 C19.24876495 17.21121323 19.25270264 18.11546539 19.25675964 19.04711914 C19.25106461 20.04195313 19.24536957 21.03678711 19.23950195 22.06176758 C19.24151611 23.10741379 19.24353027 24.15306 19.24560547 25.23039246 C19.24915798 27.50685677 19.2483753 29.78333093 19.24382973 32.05979347 C19.23825518 35.6613725 19.24736497 39.26262721 19.2610321 42.86418152 C19.29823818 53.10616449 19.3166935 63.34803932 19.30541992 73.59008789 C19.2995735 79.84951888 19.31781021 86.10849568 19.35130882 92.36783409 C19.35927382 94.75565001 19.35797107 97.14351528 19.34728432 99.53132057 C19.33298163 102.8713997 19.34920525 106.21004894 19.37231445 109.55004883 C19.36054672 110.53881012 19.34877899 111.52757141 19.33665466 112.54629517 C19.40019528 117.22432475 19.45910994 119.30617944 22.41300964 123.09526062 C24.66253863 124.75153523 26.1227432 125.73235638 28.8125 126.3125 C29.864375 126.539375 30.91625 126.76625 32 127 C32 127.99 32 128.98 32 130 C16.82 130 1.64 130 -14 130 C-14 129.01 -14 128.02 -14 127 C-13.31292969 126.86464844 -12.62585938 126.72929687 -11.91796875 126.58984375 C-11.01691406 126.37457031 -10.11585938 126.15929687 -9.1875 125.9375 C-8.29417969 125.74027344 -7.40085937 125.54304688 -6.48046875 125.33984375 C-3.5560217 123.7601818 -2.81080088 122.2504119 -1.60258865 119.21331406 C-0.38488395 114.74067268 -0.62152953 110.1757719 -0.67529297 105.57275391 C-0.67646118 104.44192383 -0.67762939 103.31109375 -0.67883301 102.14599609 C-0.68599891 98.42266257 -0.71418682 94.69979251 -0.7421875 90.9765625 C-0.75032496 88.38821827 -0.75698775 85.79986903 -0.76223755 83.21151733 C-0.77759051 77.10359685 -0.80559585 70.99586391 -0.84048474 64.88802755 C-0.90625931 53.28390237 -0.94317097 41.67967302 -0.97806168 30.07542038 C-0.99207643 26.25682704 -1.01365496 22.43833203 -1.03634644 18.61978149 C-1.04636324 16.29681465 -1.05622884 13.97384714 -1.06591797 11.65087891 C-1.07422638 10.58078583 -1.08253479 9.51069275 -1.09109497 8.40817261 C-1.09405579 7.44087219 -1.0970166 6.47357178 -1.10006714 5.47695923 C-1.10488539 4.63154886 -1.10970364 3.7861385 -1.11466789 2.91510963 C-1 1 -1 1 0 0 Z " fill="#0D3763" transform="translate(480,284)"/>
<path d="M0 0 C14.71524347 4.59889497 14.71524347 4.59889497 19 11 C21.42374463 18.65476122 20.57607118 27.15568891 20.3828125 35.07421875 C20.37337684 37.44593187 20.37012536 39.81767693 20.37277222 42.18940735 C20.36515774 48.41747695 20.2825309 54.64221814 20.18133545 60.86938477 C20.03415112 70.84475092 20.01106855 80.82146372 19.96938705 90.79770851 C19.94562762 94.27805844 19.89602779 97.75724568 19.84109497 101.23722839 C19.81847513 103.3712846 19.79607365 105.50534314 19.77392578 107.6394043 C19.75206711 108.60422226 19.73020844 109.56904022 19.70768738 110.56309509 C19.67115439 115.79876335 19.98153865 119.50464322 23 124 C25.43621453 125.54911332 25.43621453 125.54911332 28.1875 126.375 C29.53908203 126.85066406 29.53908203 126.85066406 30.91796875 127.3359375 C31.60503906 127.55507813 32.29210937 127.77421875 33 128 C33 128.66 33 129.32 33 130 C17.82 130 2.64 130 -13 130 C-13 129.01 -13 128.02 -13 127 C-12.38511719 126.84144531 -11.77023437 126.68289063 -11.13671875 126.51953125 C-9.92435547 126.16955078 -9.92435547 126.16955078 -8.6875 125.8125 C-7.88699219 125.59207031 -7.08648437 125.37164062 -6.26171875 125.14453125 C-3.06517945 123.52693883 -2.46092205 122.31758053 -1 119 C-0.53915767 115.1720952 -0.56257757 111.36048204 -0.56762695 107.50854492 C-0.5574353 106.34713989 -0.54724365 105.18573486 -0.53674316 103.98913574 C-0.50656521 100.15286464 -0.49733956 96.31684306 -0.48828125 92.48046875 C-0.47143813 89.81958735 -0.45343404 87.15873924 -0.43388367 84.49787903 C-0.39024386 78.21173782 -0.36168152 71.9256225 -0.33856028 65.63937598 C-0.31149503 58.48091563 -0.26758439 51.32258946 -0.22227156 44.16422498 C-0.12946149 29.44289601 -0.05776412 14.72150921 0 0 Z " fill="#0B3763" transform="translate(293,284)"/>
<path d="M0 0 C0.804375 -0.00128906 1.60875 -0.00257813 2.4375 -0.00390625 C3.283125 -0.00003906 4.12875 0.00382812 5 0.0078125 C6.2684375 0.00201172 6.2684375 0.00201172 7.5625 -0.00390625 C8.366875 -0.00261719 9.17125 -0.00132812 10 0 C10.7425 0.00112793 11.485 0.00225586 12.25 0.00341797 C14 0.1328125 14 0.1328125 15 1.1328125 C15.11042287 2.77275481 15.15129281 4.41742094 15.16494751 6.0610199 C15.18179848 7.66164276 15.18179848 7.66164276 15.19898987 9.29460144 C15.20631638 10.47540787 15.21364288 11.65621429 15.22119141 12.87280273 C15.2326973 14.10843964 15.24420319 15.34407654 15.25605774 16.61715698 C15.28654902 20.01587529 15.31254184 23.41456945 15.3362546 26.81333804 C15.36179475 30.36386914 15.39214094 33.91435972 15.42172241 37.46485901 C15.47060312 43.42942995 15.51527301 49.3940219 15.55761719 55.35864258 C15.60668266 62.26090221 15.66298283 69.16307492 15.72303832 76.065247 C15.77433322 81.9828447 15.82168165 87.90046441 15.86572587 93.81812054 C15.89206573 97.35611403 15.9197995 100.89408204 15.9510994 104.43203545 C15.98573291 108.37579911 16.01209589 112.31959392 16.03759766 116.26342773 C16.05466011 118.03160103 16.05466011 118.03160103 16.07206726 119.835495 C16.07766159 120.90539673 16.08325592 121.97529846 16.08901978 123.07762146 C16.09601709 124.01102073 16.10301441 124.94441999 16.11022377 125.90610409 C16 128.1328125 16 128.1328125 15 130.1328125 C10.09125628 129.5988461 6.7657739 127.35722072 2.75 124.6953125 C2.11320312 124.28732422 1.47640625 123.87933594 0.8203125 123.45898438 C-3.86444357 120.40392537 -3.86444357 120.40392537 -5 118.1328125 C-5.09458261 116.57659194 -5.12629986 115.01635212 -5.12698364 113.45726013 C-5.12980347 112.47149994 -5.13262329 111.48573975 -5.13552856 110.47010803 C-5.13350433 109.38483322 -5.1314801 108.29955841 -5.12939453 107.18139648 C-5.13114685 106.04154297 -5.13289917 104.90168945 -5.13470459 103.72729492 C-5.13912033 99.94448339 -5.13618626 96.16171829 -5.1328125 92.37890625 C-5.13348557 89.76099132 -5.13445562 87.14307646 -5.13571167 84.52516174 C-5.13753213 79.03312676 -5.13513001 73.54110521 -5.13037109 68.04907227 C-5.124926 61.69156679 -5.12669341 55.33409337 -5.1321975 48.97658867 C-5.13727401 42.86942393 -5.13674732 36.76227346 -5.13381577 30.6551075 C-5.13314629 28.05184996 -5.13397563 25.4485916 -5.13629532 22.84533501 C-5.13882007 19.21514558 -5.13498388 15.58501872 -5.12939453 11.95483398 C-5.13141876 10.86753494 -5.13344299 9.7802359 -5.13552856 8.6599884 C-5.13270874 7.67704803 -5.12988892 6.69410767 -5.12698364 5.68138123 C-5.1264181 4.39246302 -5.1264181 4.39246302 -5.12584114 3.07750607 C-4.8944257 -0.49868623 -3.1340382 0.00476091 0 0 Z " fill="#0F3A65" transform="translate(394,283.8671875)"/>
<path d="M0 0 C3.68748848 1.3930512 4.77970939 2.64753502 6.875 6 C8.50908692 10.23954773 7.84730659 14.2323796 7.2265625 18.64453125 C6.78794182 21.01821282 6.78794182 21.01821282 8 23 C8.50260166 28.11664964 8.84102072 32.52821374 6.25 37.0625 C2.25701182 40.50090649 -0.52903554 41.50629553 -5.96484375 41.39453125 C-9.61727597 40.68647817 -11.43783808 38.62465368 -14 36 C-15.34413413 33.31173174 -15.13239863 31.18764598 -15.125 28.1875 C-15.12757813 27.14980469 -15.13015625 26.11210938 -15.1328125 25.04296875 C-15 22 -15 22 -14.45703125 19.29296875 C-13.82973687 16.90359501 -13.82973687 16.90359501 -14.5625 14.125 C-15.11934122 10.14756268 -14.51138952 7.70977428 -13 4 C-9.18780361 -0.37281351 -5.49101863 -0.89103751 0 0 Z M-4 8 C-4.99 8.495 -4.99 8.495 -6 9 C-6 10.65 -6 12.3 -6 14 C-4.68 14.33 -3.36 14.66 -2 15 C-1.67 13.35 -1.34 11.7 -1 10 C-1.99 9.34 -2.98 8.68 -4 8 Z M-6 24 C-7.27003323 25.05310277 -7.27003323 25.05310277 -7.1875 27.4375 C-7.26839983 30.16734675 -7.26839983 30.16734675 -5 32 C-2.89179203 31.6814823 -2.89179203 31.6814823 -1 31 C-0.32041397 28.60280568 -0.32041397 28.60280568 0 26 C-0.66 25.34 -1.32 24.68 -2 24 C-3.32 24 -4.64 24 -6 24 Z " fill="#143C65" transform="translate(478,595)"/>
<path d="M0 0 C3.48150734 2.07408948 5.70756254 4.12268763 7 8 C7.125 10.75 7.125 10.75 7 13 C4.36 13 1.72 13 -1 13 C-1.33 11.68 -1.66 10.36 -2 9 C-3.65 9.33 -5.3 9.66 -7 10 C-7.33 11.65 -7.66 13.3 -8 15 C-6.453125 14.87625 -6.453125 14.87625 -4.875 14.75 C-0.33154849 15.0431259 1.54161133 16.10460483 5 19 C7.75583041 23.42061533 7.65355256 27.94692285 7 33 C5.37915526 36.24168949 4.05801565 38.19736744 1.1875 40.375 C-3.09562557 41.59875016 -6.68229565 41.59895652 -10.75 39.75 C-14.37251774 36.9324862 -16.09863536 34.4713763 -17 30 C-17.24143927 26.71130449 -17.23097137 23.42170938 -17.25 20.125 C-17.2809375 18.79662109 -17.2809375 18.79662109 -17.3125 17.44140625 C-17.35137602 10.91995425 -16.3464341 6.62248517 -11.875 1.625 C-7.87298758 -0.63700702 -4.49809895 -0.8163519 0 0 Z M-7 24 C-8.01540112 28.10223585 -8.01540112 28.10223585 -7 32 C-5.35 31.67 -3.7 31.34 -2 31 C-1.30840599 29.15274948 -1.30840599 29.15274948 -1 27 C-1.66 26.01 -2.32 25.02 -3 24 C-4.32 24 -5.64 24 -7 24 Z " fill="#1B426B" transform="translate(513,595)"/>
<path d="M0 0 C3.60670504 2.14867535 5.44639379 4.14702259 7 8 C7.45032197 12.11344522 7.37028976 16.23940759 7.375 20.375 C7.39949219 21.4990625 7.42398437 22.623125 7.44921875 23.78125 C7.47178846 30.14590929 7.35782319 34.20149806 3 39 C0.03518818 41.329495 -3.23981915 41.48631137 -6.96875 41.375 C-10.69772049 40.68657468 -12.53602637 38.75730382 -15 36 C-16.01667654 33.63427189 -16.49980131 31.5510133 -17 29 C-16 28 -16 28 -14.15234375 27.90234375 C-12.1015625 27.93489583 -10.05078125 27.96744792 -8 28 C-7.67 28.99 -7.34 29.98 -7 31 C-5.35 30.67 -3.7 30.34 -2 30 C-2.33 28.68 -2.66 27.36 -3 26 C-4.051875 25.938125 -5.10375 25.87625 -6.1875 25.8125 C-10.72376302 24.84575542 -12.14564526 23.58833167 -15 20 C-17.17966021 16.33420783 -17.2714584 13.21286631 -16.6171875 9 C-15.54425791 5.52316487 -13.55676079 3.55676079 -11 1 C-7.53749757 -0.73125121 -3.78591771 -0.47815224 0 0 Z M-8 10 C-8.2500773 12.45809998 -8.2500773 12.45809998 -8 15 C-7.34 15.66 -6.68 16.32 -6 17 C-3.89179203 16.6814823 -3.89179203 16.6814823 -2 16 C-1.06576355 12.98968256 -0.95550089 12.13349732 -2 9 C-5.28930404 8.63314303 -5.28930404 8.63314303 -8 10 Z " fill="#204469" transform="translate(444,595)"/>
<path d="M0 0 C12 0 12 0 15.5625 1.5625 C18.55700248 4.55700248 19.80938854 6.93791383 21 11 C20.81569642 14.13316082 20.44960117 16.22568688 18.875 18.9375 C16.83118712 23.75505893 19.29353885 29.33567286 21 34 C20 35 20 35 16.4375 35.0625 C15.303125 35.041875 14.16875 35.02125 13 35 C12.60167969 34.04287109 12.60167969 34.04287109 12.1953125 33.06640625 C11.84210938 32.24011719 11.48890625 31.41382813 11.125 30.5625 C10.77695312 29.73878906 10.42890625 28.91507812 10.0703125 28.06640625 C9.1755063 25.84253285 9.1755063 25.84253285 7 25 C7 28.3 7 31.6 7 35 C4.69 35 2.38 35 0 35 C0 23.45 0 11.9 0 0 Z M7 8 C7 10.97 7 13.94 7 17 C8.65 16.67 10.3 16.34 12 16 C12.76956136 13.65466049 12.76956136 13.65466049 13 11 C11.85353452 9.10338257 11.85353452 9.10338257 10 8 C9.01 8 8.02 8 7 8 Z " fill="#173E66" transform="translate(453,466)"/>
<path d="M0 0 C3.63 0 7.26 0 11 0 C13.2604244 5.85470283 14.12428242 11.898821 15.125 18.0625 C15.30675781 19.13822266 15.48851562 20.21394531 15.67578125 21.32226562 C16.43715454 25.93916458 17.10948584 30.30964779 17 35 C14.69 35 12.38 35 10 35 C9.67 33.35 9.34 31.7 9 30 C7.02 30 5.04 30 3 30 C2.505 32.475 2.505 32.475 2 35 C-0.31 35 -2.62 35 -5 35 C-4.55198205 23.12752423 -2.24423193 11.63869118 0 0 Z M5 15 C4.67 17.31 4.34 19.62 4 22 C4.99 22 5.98 22 7 22 C6.67 19.69 6.34 17.38 6 15 C5.67 15 5.34 15 5 15 Z " fill="#143B64" transform="translate(423,466)"/>
<path d="M0 0 C3.3125 2.0625 3.3125 2.0625 6 5 C6.875 8.8125 6.875 8.8125 7 12 C4.36 12 1.72 12 -1 12 C-1.33 11.01 -1.66 10.02 -2 9 C-2.99 8.67 -3.98 8.34 -5 8 C-4.69444679 11.16810435 -4.50148535 12.58291335 -2.00390625 14.66015625 C-1.19824219 15.12292969 -0.39257812 15.58570313 0.4375 16.0625 C3.81198889 18.01786194 5.63953283 19.28377652 7 23 C7.43002518 26.31733709 7.71759662 28.80489486 5.94921875 31.75 C4.16668559 33.93741533 2.54315498 35.72842251 0 37 C-4.03990348 37.38112297 -6.29321967 37.4240682 -9.8125 35.3125 C-12.91577393 32.03189613 -14 29.50335942 -14 25 C-11.36 25 -8.72 25 -6 25 C-5.67 25.99 -5.34 26.98 -5 28 C-4.01 28 -3.02 28 -2 28 C-2 26.68 -2 25.36 -2 24 C-2.61488281 23.72027344 -3.22976563 23.44054687 -3.86328125 23.15234375 C-8.04787358 21.07673256 -10.56949769 19.6519035 -13.1875 15.6875 C-14.17322674 11.2138171 -14.10795681 8.1002873 -12 4 C-8.1741474 0.52195218 -5.15159465 -0.965924 0 0 Z " fill="#1D476F" transform="translate(521,465)"/>
<path d="M0 0 C12 0 12 0 15.5625 1.5625 C18.63726357 4.63726357 19.8919927 6.77572217 21 11 C20.81105281 15.66069737 19.90176165 18.96941526 16.8125 22.5 C13.50865988 24.26204807 10.71293914 24.70878909 7 25 C7 28.3 7 31.6 7 35 C4.69 35 2.38 35 0 35 C0 23.45 0 11.9 0 0 Z M7 8 C7 10.97 7 13.94 7 17 C10.29075996 16.62095792 10.29075996 16.62095792 13 15 C13.33343551 12.54207971 13.33343551 12.54207971 13 10 C10.18490007 7.7226499 10.18490007 7.7226499 7 8 Z " fill="#10345A" transform="translate(391,466)"/>
<path d="M0 0 C10.18544626 1.30771552 19.19192409 6.00816961 28 11 C28.84949219 11.47308594 29.69898438 11.94617188 30.57421875 12.43359375 C32.62586902 13.83604029 33.78728698 14.83038062 35 17 C35.71825592 21.06584154 35.35607318 24.90515844 35 29 C34.93402651 30.38644289 34.87440352 31.77319895 34.8203125 33.16015625 C34.75681164 34.58600981 34.69172267 36.01179357 34.625 37.4375 C34.59470703 38.11151855 34.56441406 38.78553711 34.53320312 39.47998047 C34.29683008 43.35591711 33.6651506 46.48693837 32 50 C31.01 49.67 30.02 49.34 29 49 C28.91363281 48.12859375 28.82726562 47.2571875 28.73828125 46.359375 C27.45783302 35.50493313 24.71084512 25.80798422 18 17 C17.29875 16.01 16.5975 15.02 15.875 14 C12.98516193 10.56100267 9.30625621 8.62159429 5.40234375 6.4921875 C2.87747975 4.92389799 1.01722159 3.17095903 -1 1 C-0.67 0.67 -0.34 0.34 0 0 Z " fill="#173D64" transform="translate(604,282)"/>
<path d="M0 0 C8.25 0 16.5 0 25 0 C25 0.99 25 1.98 25 3 C23.2421875 4.359375 23.2421875 4.359375 20.875 5.75 C11.9212242 11.47592559 6.69933759 19.46774632 4.0234375 29.75390625 C3.28763478 33.16129174 2.60830674 36.56776524 2 40 C0.35 39.67 -1.3 39.34 -3 39 C-2.73879919 33.9276855 -2.47214963 28.85569797 -2.20043945 23.78393555 C-2.10876937 22.05842869 -2.01859052 20.33284193 -1.92993164 18.60717773 C-1.80226034 16.12721619 -1.66923447 13.64759113 -1.53515625 11.16796875 C-1.49656998 10.39599655 -1.4579837 9.62402435 -1.41822815 8.82865906 C-1.24351317 5.67883664 -1.00286136 3.00858409 0 0 Z " fill="#173D65" transform="translate(345,284)"/>
<path d="M0 0 C8.25 0 16.5 0 25 0 C26.37553613 2.75107227 26.32606536 5.18728604 26.53515625 8.2578125 C26.62216797 9.52367187 26.70917969 10.78953125 26.79882812 12.09375 C26.84209229 12.75632812 26.88535645 13.41890625 26.92993164 14.1015625 C27.06064631 16.09670654 27.19921237 18.09133117 27.33789062 20.0859375 C27.76312331 26.40368032 28.12084306 32.6678238 28 39 C26.02 39.495 26.02 39.495 24 40 C23.06764963 36.77263332 22.14161695 33.55055579 21.3046875 30.296875 C18.77831816 20.56370471 15.24675968 12.12147101 6.54296875 6.37890625 C4.38862539 5.1812949 2.2289302 4.05128681 0 3 C0 2.01 0 1.02 0 0 Z " fill="#163D65" transform="translate(428,284)"/>
<path d="M0 0 C2.47923801 -0.02685095 4.9581884 -0.04676547 7.4375 -0.0625 C8.14455078 -0.07087891 8.85160156 -0.07925781 9.58007812 -0.08789062 C11.38693559 -0.09653588 13.19387603 -0.05220011 15 0 C16.81565436 1.81565436 16.12861899 4.31269962 16.13894653 6.72888184 C16.1369223 7.52991333 16.13489807 8.33094482 16.1328125 9.15625 C16.13424759 10.38245056 16.13424759 10.38245056 16.13571167 11.63342285 C16.13639345 13.36515378 16.13453929 15.09688724 16.13037109 16.82861328 C16.12502279 19.48866482 16.13031612 22.1485475 16.13671875 24.80859375 C16.13605797 26.48697954 16.1347768 28.16536523 16.1328125 29.84375 C16.13483673 30.64478149 16.13686096 31.44581299 16.13894653 32.27111816 C16.11495079 37.88504921 16.11495079 37.88504921 15 39 C12.36 39 9.72 39 7 39 C7 28.77 7 18.54 7 8 C4.69 8 2.38 8 0 8 C-0.99435406 4.90645403 -0.87840996 3.09720845 0 0 Z " fill="#24476D" transform="translate(399,596)"/>
<path d="M0 0 C44.88 0 89.76 0 136 0 C136.33 0.99 136.66 1.98 137 3 C91.79 3 46.58 3 0 3 C0 2.01 0 1.02 0 0 Z " fill="#49617B" transform="translate(391,548)"/>
<path d="M0 0 C2.31 0 4.62 0 7 0 C7 11.55 7 23.1 7 35 C4.69 35 2.38 35 0 35 C-1.70492881 33.29507119 -1.1280442 31.15465739 -1.13894653 28.88098145 C-1.1369223 28.16744507 -1.13489807 27.45390869 -1.1328125 26.71875 C-1.13376923 25.99006714 -1.13472595 25.26138428 -1.13571167 24.51062012 C-1.13639335 22.9672029 -1.13453988 21.42378283 -1.13037109 19.88037109 C-1.12502262 17.510026 -1.13031642 15.13987041 -1.13671875 12.76953125 C-1.13605797 11.27343708 -1.1347768 9.77734303 -1.1328125 8.28125 C-1.13483673 7.56771362 -1.13686096 6.85417725 -1.13894653 6.11901855 C-1.11495191 1.11495191 -1.11495191 1.11495191 0 0 Z " fill="#042E59" transform="translate(487,466)"/>
<path d="M0 0 C0.66 0.33 1.32 0.66 2 1 C1.67 1.66 1.34 2.32 1 3 C1.99 3 2.98 3 4 3 C4 3.99 4 4.98 4 6 C5.32 6 6.64 6 8 6 C8 6.66 8 7.32 8 8 C6.68 8.33 5.36 8.66 4 9 C4 10.65 4 12.3 4 14 C5.32 14.33 6.64 14.66 8 15 C8.33 12.69 8.66 10.38 9 8 C9.66 8.66 10.32 9.32 11 10 C10.625 13.625 10.625 13.625 10 17 C8.35 17 6.7 17 5 17 C5.78130071 19.49552484 5.78130071 19.49552484 7 22 C7.99 22.33 8.98 22.66 10 23 C9.67 23.99 9.34 24.98 9 26 C4.08181264 25.27673715 -0.07327243 23.72741092 -3.8125 20.375 C-5.65209137 16.69581726 -6.12806519 13.09808604 -6 9 C-4.61760462 5.26753247 -3.02616077 2.59385209 0 0 Z " fill="#22476D" transform="translate(433,596)"/>
<path d="M0 0 C0.33 0 0.66 0 1 0 C1 3 1 6 1 9 C1.99 9.66 2.98 10.32 4 11 C4.12117188 10.36191406 4.24234375 9.72382813 4.3671875 9.06640625 C4.53476562 8.24011719 4.70234375 7.41382813 4.875 6.5625 C5.03742188 5.73878906 5.19984375 4.91507812 5.3671875 4.06640625 C5.57601563 3.38449219 5.78484375 2.70257813 6 2 C6.66 1.67 7.32 1.34 8 1 C8.80967438 3.91482778 9.21845993 5.46113217 8.0625 8.3125 C7.711875 8.869375 7.36125 9.42625 7 10 C7.66 10.33 8.32 10.66 9 11 C9.33 10.34 9.66 9.68 10 9 C10 10.32 10 11.64 10 13 C9.01 13.66 8.02 14.32 7 15 C6.34 15.66 5.68 16.32 5 17 C6.32 17.33 7.64 17.66 9 18 C9.37125 16.7934375 9.37125 16.7934375 9.75 15.5625 C11 13 11 13 13.125 12.1875 C13.74375 12.125625 14.3625 12.06375 15 12 C15.20140476 15.62528568 14.85776765 17.86501708 13 21 C14.32 21 15.64 21 17 21 C17.33 20.01 17.66 19.02 18 18 C19 19 19 19 19.0625 21.5625 C19.041875 22.366875 19.02125 23.17125 19 24 C16.69 24 14.38 24 12 24 C11.67 22.35 11.34 20.7 11 19 C9.02 19 7.04 19 5 19 C4.67 20.65 4.34 22.3 4 24 C1.69 24 -0.62 24 -3 24 C-2.50877547 15.86894139 -1.64733759 7.98079085 0 0 Z " fill="#305476" transform="translate(421,477)"/>
<path d="M0 0 C4.55423254 -0.35719471 7.972608 -0.513696 12.125 1.5625 C14 4 14 4 13.8125 6.9375 C13.67585938 7.5253125 13.53921875 8.113125 13.3984375 8.71875 C12.52362918 13.72745649 12.93138113 18.92982769 13 24 C10.03 24 7.06 24 4 24 C3.67 22.02 3.34 20.04 3 18 C4.65 18 6.3 18 8 18 C8 15.03 8 12.06 8 9 C7.34 9 6.68 9 6 9 C6 8.34 6 7.68 6 7 C4.68 7 3.36 7 2 7 C2 6.01 2 5.02 2 4 C1.01 4 0.02 4 -1 4 C-0.67 2.68 -0.34 1.36 0 0 Z " fill="#173E66" transform="translate(435,595)"/>
<path d="M0 0 C3.3125 2.0625 3.3125 2.0625 6 5 C6.875 8.8125 6.875 8.8125 7 12 C4.36 12 1.72 12 -1 12 C-1.33 11.01 -1.66 10.02 -2 9 C-2.99 8.67 -3.98 8.34 -5 8 C-5.66 9.32 -6.32 10.64 -7 12 C-7.33 9.69 -7.66 7.38 -8 5 C-10.19167509 6.7756455 -10.19167509 6.7756455 -10.23046875 9.05859375 C-10.21628906 9.84363281 -10.20210938 10.62867188 -10.1875 11.4375 C-10.18105469 12.21996094 -10.17460937 13.00242187 -10.16796875 13.80859375 C-10.07555669 16.17799677 -10.07555669 16.17799677 -9 19 C-9.66 19 -10.32 19 -11 19 C-13.14707968 15.03616059 -14.43454825 12.32513803 -13.5625 7.8125 C-12.55912047 4.64231315 -11.85245401 3.86586729 -9.25 1.5 C-5.6540398 -0.15967394 -3.89063716 -0.72949447 0 0 Z " fill="#24466A" transform="translate(521,465)"/>
<path d="M0 0 C12.05357143 -0.53571429 12.05357143 -0.53571429 15.6875 1.875 C18 4 18 4 19 6 C16.525 5.505 16.525 5.505 14 5 C14 6.32 14 7.64 14 9 C11.69 8.67 9.38 8.34 7 8 C7 10.97 7 13.94 7 17 C8.98 16.34 10.96 15.68 13 15 C12.67 16.32 12.34 17.64 12 19 C10.02 19 8.04 19 6 19 C6 15.37 6 11.74 6 8 C5.34 8 4.68 8 4 8 C4 9.98 4 11.96 4 14 C3.01 14.33 2.02 14.66 1 15 C0.67 10.05 0.34 5.1 0 0 Z " fill="#23476D" transform="translate(391,466)"/>
<path d="M0 0 C-2.74843579 2.90675583 -5.52982957 5.12928129 -8.875 7.3125 C-13.42477653 10.42196266 -16.63155744 13.65648196 -20 18 C-22.57455698 15.42544302 -22.41265954 13.52404278 -23 10 C-23.66 9.34 -24.32 8.68 -25 8 C-8.85227273 -0.43181818 -8.85227273 -0.43181818 0 0 Z " fill="#09335E" transform="translate(582,283)"/>
<path d="M0 0 C0.33 0 0.66 0 1 0 C1.33 3.3 1.66 6.6 2 10 C2.66 10 3.32 10 4 10 C4.66 9.01 5.32 8.02 6 7 C6.05429959 8.74965358 6.09292823 10.49979787 6.125 12.25 C6.14820313 13.22453125 6.17140625 14.1990625 6.1953125 15.203125 C5.99862781 18.0196498 5.44568916 19.60949036 4 22 C4.66 22.33 5.32 22.66 6 23 C6 26.3 6 29.6 6 33 C4.02 33 2.04 33 0 33 C0 22.11 0 11.22 0 0 Z " fill="#062A53" transform="translate(453,467)"/>
<path d="M0 0 C9.58378719 1.843036 17.49736981 5.40908281 26 10 C25.34 10.66 24.68 11.32 24 12 C23.01 12 22.02 12 21 12 C20.34 13.65 19.68 15.3 19 17 C18.0409375 15.948125 18.0409375 15.948125 17.0625 14.875 C13.48405679 11.28639076 9.24852982 8.7205498 5 6 C3.81063617 5.21113623 2.62283492 4.4199047 1.4375 3.625 C0.633125 3.08875 -0.17125 2.5525 -1 2 C-0.67 1.34 -0.34 0.68 0 0 Z " fill="#21446A" transform="translate(604,282)"/>
<path d="M0 0 C0.99 0.495 0.99 0.495 2 1 C2.00238835 1.54499681 2.00477671 2.08999361 2.00723743 2.65150547 C2.06645261 15.93130226 2.14223161 29.21091634 2.23571491 42.49051762 C2.28042519 48.91252956 2.31968014 55.33447796 2.34643555 61.7565918 C2.37246155 67.9553213 2.41285966 74.15380639 2.46318626 80.35238457 C2.4798596 82.71620072 2.49137095 85.08005915 2.49761391 87.44392586 C2.50724957 90.75722956 2.53530386 94.06990726 2.56762695 97.38305664 C2.56619186 98.35841873 2.56475677 99.33378082 2.5632782 100.33869934 C2.64112027 105.98797041 3.38796958 109.97013743 6 115 C4.0625 114.6875 4.0625 114.6875 2 114 C1.05316024 111.15948071 0.86508824 109.37187032 0.84178162 106.42524719 C0.82709839 105.01810455 0.82709839 105.01810455 0.81211853 103.58253479 C0.80636307 102.55538864 0.8006076 101.52824249 0.79467773 100.4699707 C0.78477814 99.38688629 0.77487854 98.30380188 0.76467896 97.18789673 C0.73303945 93.6005473 0.70829674 90.01318461 0.68359375 86.42578125 C0.66302635 83.94141797 0.64202993 81.4570582 0.62062073 78.97270203 C0.57102732 73.09731676 0.52576769 67.22191055 0.48259836 61.34647483 C0.42836417 54.00112854 0.36741788 46.6558417 0.30664062 39.31054688 C0.19903214 26.20707091 0.09740657 13.10355557 0 0 Z " fill="#1E3A58" transform="translate(310,294)"/>
<path d="M0 0 C0.66 0.33 1.32 0.66 2 1 C1.51029997 5.88259738 0.18083148 8.71355197 -2.75 12.625 C-3.76320313 14.00558594 -3.76320313 14.00558594 -4.796875 15.4140625 C-6.99911921 17.99896616 -9.28242707 19.97607331 -12 22 C-12.33 21.01 -12.66 20.02 -13 19 C-12.01 19 -11.02 19 -10 19 C-11.26974972 14.58477891 -11.26974972 14.58477891 -14 11 C-12.7625 10.2265625 -12.7625 10.2265625 -11.5 9.4375 C-7.3394914 6.68041655 -3.69620477 3.33971802 0 0 Z " fill="#2A4E72" transform="translate(633,383)"/>
<path d="M0 0 C2 0.875 2 0.875 3.25 3.4375 C3.4975 4.241875 3.745 5.04625 4 5.875 C4.33 5.215 4.66 4.555 5 3.875 C5.66 3.875 6.32 3.875 7 3.875 C7 3.215 7 2.555 7 1.875 C7.99 1.545 8.98 1.215 10 0.875 C10.36076925 5.94581218 10.5619882 9.75102359 8.25 14.375 C4.98323482 18.00473909 3.42853084 18.74513356 -1.4375 19.1875 C-5.17703106 18.85947096 -7.00122769 18.05592532 -10 15.875 C-7.27761216 14.51380608 -5.90677521 15.11370173 -3 15.875 C-0.6875 16.9375 -0.6875 16.9375 1 17.875 C1 16.885 1 15.895 1 14.875 C2.32 14.875 3.64 14.875 5 14.875 C5.66 12.895 6.32 10.915 7 8.875 C6.278125 9.37 5.55625 9.865 4.8125 10.375 C1.85151341 11.95419285 0.28746971 12.15678312 -3 11.875 C-3.33 11.215 -3.66 10.555 -4 9.875 C-2.35 9.215 -0.7 8.555 1 7.875 C0.81171228 5.43019921 0.81171228 5.43019921 0 2.875 C-1.96758273 1.51479849 -1.96758273 1.51479849 -4 0.875 C-2 -0.125 -2 -0.125 0 0 Z " fill="#3C5A77" transform="translate(510,617.125)"/>
<path d="M0 0 C2.31 0 4.62 0 7 0 C7 11.55 7 23.1 7 35 C4.69 35 2.38 35 0 35 C-1.70492881 33.29507119 -1.1280442 31.15465739 -1.13894653 28.88098145 C-1.1369223 28.16744507 -1.13489807 27.45390869 -1.1328125 26.71875 C-1.13376923 25.99006714 -1.13472595 25.26138428 -1.13571167 24.51062012 C-1.13639335 22.9672029 -1.13453988 21.42378283 -1.13037109 19.88037109 C-1.12502262 17.510026 -1.13031642 15.13987041 -1.13671875 12.76953125 C-1.13605797 11.27343708 -1.1347768 9.77734303 -1.1328125 8.28125 C-1.13483673 7.56771362 -1.13686096 6.85417725 -1.13894653 6.11901855 C-1.11495191 1.11495191 -1.11495191 1.11495191 0 0 Z M1 2 C1 12.56 1 23.12 1 34 C2.65 34 4.3 34 6 34 C6 23.11 6 12.22 6 1 C4.30032683 1 2.64892518 1.58776871 1 2 Z " fill="#5D7892" transform="translate(487,466)"/>
<path d="M0 0 C0.33 1.98 0.66 3.96 1 6 C0.01 6 -0.98 6 -2 6 C-2.061875 6.78375 -2.12375 7.5675 -2.1875 8.375 C-2.455625 9.24125 -2.72375 10.1075 -3 11 C-5.5625 12.3125 -5.5625 12.3125 -8 13 C-8.33 12.34 -8.66 11.68 -9 11 C-9.99 11.495 -9.99 11.495 -11 12 C-11.66 11.67 -12.32 11.34 -13 11 C-11.75023244 7.34683329 -11.32901247 6.21934164 -8 4 C-9.98 4 -11.96 4 -14 4 C-5.38613861 -1.74257426 -5.38613861 -1.74257426 0 0 Z " fill="#173F68" transform="translate(622,396)"/>
<path d="M0 0 C2.475 0.99 2.475 0.99 5 2 C5.66 1.34 6.32 0.68 7 0 C7.33 2.97 7.66 5.94 8 9 C9.32 9 10.64 9 12 9 C12.33 10.98 12.66 12.96 13 15 C5.04158348 14.8129432 5.04158348 14.8129432 1.4375 12 C-0.5154355 7.92430853 -0.3482599 4.44031377 0 0 Z " fill="#042F59" transform="translate(463,620)"/>
<path d="M0 0 C2.64 0 5.28 0 8 0 C8.33 0.99 8.66 1.98 9 3 C9.99 3.33 10.98 3.66 12 4 C11.67 5.98 11.34 7.96 11 10 C12.65 10 14.3 10 16 10 C14 12 14 12 10.6875 12.375 C6.39072628 11.93803996 4.93902558 11.1069699 2 8 C0.48151073 5.03533048 0 3.34238213 0 0 Z " fill="#395979" transform="translate(507,490)"/>
<path d="M0 0 C0.66 0.33 1.32 0.66 2 1 C2.33 1.99 2.66 2.98 3 4 C4.45635371 4.22174933 5.91522956 4.42698698 7.375 4.625 C8.18710937 4.74101563 8.99921875 4.85703125 9.8359375 4.9765625 C10.55007813 4.98429688 11.26421875 4.99203125 12 5 C12.66 4.34 13.32 3.68 14 3 C14.99 3 15.98 3 17 3 C16.34 4.98 15.68 6.96 15 9 C13.68 9 12.36 9 11 9 C11 9.99 11 10.98 11 12 C6.40773915 12.2551256 3.94336236 11.38811597 0.25 8.75 C-1.59090846 6.17272815 -1.26768336 4.07835869 -1 1 C-0.67 0.67 -0.34 0.34 0 0 Z " fill="#042F5C" transform="translate(500,623)"/>
<path d="M0 0 C8.25 0 16.5 0 25 0 C25 0.99 25 1.98 25 3 C22.8125 4.60546875 22.8125 4.60546875 20 6.1875 C19.071875 6.71730469 18.14375 7.24710937 17.1875 7.79296875 C16.465625 8.19128906 15.74375 8.58960938 15 9 C14.957279 7.33388095 14.95936168 5.66617115 15 4 C15.33 3.67 15.66 3.34 16 3 C10.72 3 5.44 3 0 3 C0 2.01 0 1.02 0 0 Z " fill="#1E3F62" transform="translate(345,284)"/>
<path d="M0 0 C0.66 0.33 1.32 0.66 2 1 C2 5.29 2 9.58 2 14 C-0.97 14 -3.94 14 -7 14 C-7.33 12.02 -7.66 10.04 -8 8 C-6.35 8 -4.7 8 -3 8 C-2.814375 6.576875 -2.814375 6.576875 -2.625 5.125 C-2 2 -2 2 0 0 Z " fill="#032F5B" transform="translate(446,605)"/>
<path d="M0 0 C1.98 0 3.96 0 6 0 C6 1.98 6 3.96 6 6 C7.32 6 8.64 6 10 6 C10 4.35 10 2.7 10 1 C10.33 1 10.66 1 11 1 C11.08142927 2.7492214 11.13938541 4.49954542 11.1875 6.25 C11.22230469 7.22453125 11.25710938 8.1990625 11.29296875 9.203125 C10.95543679 12.42543008 10.05928895 13.57242512 8 16 C7.67 16.99 7.34 17.98 7 19 C6.34 19 5.68 19 5 19 C4.01 16.36 3.02 13.72 2 11 C2.66 10.67 3.32 10.34 4 10 C4.20970559 5.85906302 4.20970559 5.85906302 3 2 C2.01 1.34 1.02 0.68 0 0 Z " fill="#032E5A" transform="translate(473,601)"/>
<path d="M0 0 C2.78097649 3.4130166 5.11975202 6.52666021 4.8984375 11.09765625 C4.6545961 13.07277155 4.33256381 15.0378735 4 17 C2.68 17 1.36 17 0 17 C-0.33 16.01 -0.66 15.02 -1 14 C-0.34 13.67 0.32 13.34 1 13 C1.65555119 10.47266765 1.65555119 10.47266765 2 8 C-1.73639216 9.24546405 -2.18756513 10.63404953 -4 14 C-5.65 13.67 -7.3 13.34 -9 13 C-7.6875 11 -7.6875 11 -6 9 C-5.01 9 -4.02 9 -3 9 C-3 6.69 -3 4.38 -3 2 C-2.34 2.33 -1.68 2.66 -1 3 C-0.67 2.01 -0.34 1.02 0 0 Z " fill="#07305E" transform="translate(434,481)"/>
<path d="M0 0 C0.7425 0.185625 1.485 0.37125 2.25 0.5625 C4.99006016 0.99841866 6.39020109 0.71994453 9 0 C9.66 0.33 10.32 0.66 11 1 C11.40729228 3.32156597 11.74438677 5.6568787 12 8 C7.51925805 11.36055646 4.39449293 11.27429625 -1 11 C-1.33 10.34 -1.66 9.68 -2 9 C0.31 9.33 2.62 9.66 5 10 C4.67 8.02 4.34 6.04 4 4 C2.68 4 1.36 4 0 4 C0 2.68 0 1.36 0 0 Z " fill="#022F60" transform="translate(471,625)"/>
<path d="M0 0 C0.99 0.33 1.98 0.66 3 1 C4.16796875 3.94140625 4.16796875 3.94140625 5.1875 7.5625 C5.53167969 8.76003906 5.87585938 9.95757812 6.23046875 11.19140625 C6.48441406 12.11824219 6.73835938 13.04507812 7 14 C6 15 6 15 2.4375 15.0625 C1.303125 15.041875 0.16875 15.02125 -1 15 C-1.99 12.03 -2.98 9.06 -4 6 C-1.525 6.495 -1.525 6.495 1 7 C0.67 4.69 0.34 2.38 0 0 Z " fill="#234466" transform="translate(467,486)"/>
<path d="M0 0 C0.66 0 1.32 0 2 0 C3.42857143 8.57142857 3.42857143 8.57142857 1 12 C-0.65 12 -2.3 12 -4 12 C-3.34 12.33 -2.68 12.66 -2 13 C-1.375 16.0625 -1.375 16.0625 -1 19 C-1.99 18.67 -2.98 18.34 -4 18 C-4 21.3 -4 24.6 -4 28 C-6.31 28 -8.62 28 -11 28 C-11 27.67 -11 27.34 -11 27 C-9.02 27 -7.04 27 -5 27 C-5 23.7 -5 20.4 -5 17 C-5.99 16.67 -6.98 16.34 -8 16 C-7.68289063 15.45859375 -7.36578125 14.9171875 -7.0390625 14.359375 C-5.81692026 11.5842851 -5.59056564 9.26791902 -5.375 6.25 C-5.26285156 4.77273438 -5.26285156 4.77273438 -5.1484375 3.265625 C-5.09945313 2.51796875 -5.05046875 1.7703125 -5 1 C-4.67 1 -4.34 1 -4 1 C-4 3.97 -4 6.94 -4 10 C-2.35 9.67 -0.7 9.34 1 9 C1 6.69 1 4.38 1 2 C0.34 1.67 -0.32 1.34 -1 1 C-0.67 0.67 -0.34 0.34 0 0 Z " fill="#3E5D7E" transform="translate(464,473)"/>
<path d="M0 0 C3.9517002 -0.3763524 5.82294633 -0.09508438 9.375 1.8125 C10.24125 2.534375 11.1075 3.25625 12 4 C12 4.99 12 5.98 12 7 C11.34 7 10.68 7 10 7 C10 7.66 10 8.32 10 9 C9.34 9 8.68 9 8 9 C7.34 10.32 6.68 11.64 6 13 C5.34 10.69 4.68 8.38 4 6 C2.35 6 0.7 6 -1 6 C-0.67 4.02 -0.34 2.04 0 0 Z " fill="#06305B" transform="translate(507,612)"/>
<path d="M0 0 C2.32452624 3.48678936 2.29773734 5.06967571 2.4140625 9.19921875 C2.45273437 10.40771484 2.49140625 11.61621094 2.53125 12.86132812 C2.57765625 14.7552832 2.57765625 14.7552832 2.625 16.6875 C2.66367187 17.96173828 2.70234375 19.23597656 2.7421875 20.54882812 C2.83657686 23.69907292 2.9221583 26.84930991 3 30 C0.48111585 27.80966596 -0.49612016 26.30436268 -1 23 C-1.08952213 21.44856455 -1.13061557 19.89385834 -1.1328125 18.33984375 C-1.13410156 17.46392578 -1.13539063 16.58800781 -1.13671875 15.68554688 C-1.13285156 14.77869141 -1.12898438 13.87183594 -1.125 12.9375 C-1.12886719 12.02677734 -1.13273437 11.11605469 -1.13671875 10.17773438 C-1.13542969 9.30310547 -1.13414062 8.42847656 -1.1328125 7.52734375 C-1.13168457 6.73062256 -1.13055664 5.93390137 -1.12939453 5.11303711 C-1 3 -1 3 0 0 Z " fill="#405B7A" transform="translate(497,602)"/>
<path d="M0 0 C1.34655021 4.03965064 0.56308395 6.09229013 -1 10 C-3.625 11.4375 -3.625 11.4375 -6 12 C-5.731875 12.53625 -5.46375 13.0725 -5.1875 13.625 C-5 16 -5 16 -7.125 18.9375 C-8.066469 19.97390706 -9.02547147 20.99461569 -10 22 C-10.47824219 22.49371094 -10.95648437 22.98742187 -11.44921875 23.49609375 C-12.61830722 24.67858152 -13.80727736 25.84135515 -15 27 C-15 23.17604259 -13.76133225 21.6740983 -11.71875 18.45703125 C-11.04199219 17.38388672 -10.36523438 16.31074219 -9.66796875 15.20507812 C-8.94545716 14.07412632 -8.22279902 12.94326813 -7.5 11.8125 C-6.77672746 10.6703119 -6.05406369 9.52773806 -5.33203125 8.38476562 C-3.56065074 5.58598441 -1.78310614 2.79131988 0 0 Z " fill="#315272" transform="translate(642,597)"/>
<path d="M0 0 C0.66 0 1.32 0 2 0 C2 0.66 2 1.32 2 2 C3.65 2.33 5.3 2.66 7 3 C7.05399736 4.45792884 7.09279177 5.91642712 7.125 7.375 C7.14820313 8.18710937 7.17140625 8.99921875 7.1953125 9.8359375 C7 12 7 12 5 14 C3.68 14 2.36 14 1 14 C0.12109375 7.84765625 0.12109375 7.84765625 0 6 C0.33 5.67 0.66 5.34 1 5 C0.71395102 3.32457024 0.38218767 1.65614657 0 0 Z " fill="#0F3861" transform="translate(403,469)"/>
<path d="M0 0 C2 2 2 2 2.25 5.68359375 C2.09628838 12.53336768 0.98816792 19.29371557 0 26.0625 C-0.19327967 27.41853848 -0.38599237 28.7746579 -0.578125 30.13085938 C-1.04653075 33.42140975 -1.52063108 36.71103199 -2 40 C-2.33 40 -2.66 40 -3 40 C-2.93941406 39.22140625 -2.87882813 38.4428125 -2.81640625 37.640625 C-2.19988358 29.40767607 -1.73691114 21.17939145 -1.39282227 12.93066406 C-1.19404261 8.54446271 -0.84190965 4.32180285 0 0 Z " fill="#375674" transform="translate(749,425)"/>
<path d="M0 0 C2.38642385 2.38642385 2.52003049 3.66778384 3.125 6.9375 C3.29257812 7.81277344 3.46015625 8.68804687 3.6328125 9.58984375 C4 12 4 12 4 15 C3.34 15.66 2.68 16.32 2 17 C0 15.5625 0 15.5625 -2 13 C-2.76325829 8.16307245 -2.4312207 4.27894843 0 0 Z " fill="#042F5A" transform="translate(512,468)"/>
<path d="M0 0 C2.375 2 2.375 2 4 4 C3.01 4.495 3.01 4.495 2 5 C2 4.34 2 3.68 2 3 C-2.53140653 2.06619039 -2.53140653 2.06619039 -7 3 C-7.33 3.66 -7.66 4.32 -8 5 C-8.66 5.66 -9.32 6.32 -10 7 C-10.28082344 9.10749466 -10.28082344 9.10749466 -10.1875 11.4375 C-10.18105469 12.21996094 -10.17460937 13.00242187 -10.16796875 13.80859375 C-10.07555669 16.17799677 -10.07555669 16.17799677 -9 19 C-9.66 19 -10.32 19 -11 19 C-13.14707968 15.03616059 -14.43454825 12.32513803 -13.5625 7.8125 C-12.55912047 4.64231315 -11.85245401 3.86586729 -9.25 1.5 C-5.72137216 -0.12859747 -3.82292475 -0.66485648 0 0 Z " fill="#3F5D78" transform="translate(521,465)"/>
<path d="M0 0 C-2.9905167 3.33557632 -5.93184627 5.15083921 -10 7 C-10 5.68 -10 4.36 -10 3 C-10.598125 3.33 -11.19625 3.66 -11.8125 4 C-14 5 -14 5 -17 5 C-17 5.66 -17 6.32 -17 7 C-20.47307692 9.10865385 -20.47307692 9.10865385 -23.140625 8.55859375 C-24.06101562 8.28208984 -24.06101562 8.28208984 -25 8 C-8.85227273 -0.43181818 -8.85227273 -0.43181818 0 0 Z " fill="#4A6884" transform="translate(582,283)"/>
<path d="M0 0 C1.32 0.33 2.64 0.66 4 1 C5.46726798 4.81489674 4.43336419 7.29011622 3 11 C0.69 11.33 -1.62 11.66 -4 12 C-3.67 10.68 -3.34 9.36 -3 8 C-3.66 7.67 -4.32 7.34 -5 7 C-4.01 7 -3.02 7 -2 7 C-2 6.34 -2 5.68 -2 5 C-1.34 5 -0.68 5 0 5 C0 3.35 0 1.7 0 0 Z " fill="#08325D" transform="translate(521,489)"/>
<path d="M0 0 C0.99 0 1.98 0 3 0 C3.20140476 3.62528568 2.85776765 5.86501708 1 9 C2.32 9 3.64 9 5 9 C5.33 8.01 5.66 7.02 6 6 C7 7 7 7 7.0625 9.5625 C7.041875 10.366875 7.02125 11.17125 7 12 C4.66705225 12.04241723 2.33297433 12.04092937 0 12 C-1 11 -1 11 -1.0625 8.4375 C-1.041875 7.633125 -1.02125 6.82875 -1 6 C-1.66 6 -2.32 6 -3 6 C-1.125 1.125 -1.125 1.125 0 0 Z " fill="#133D68" transform="translate(433,489)"/>
<path d="M0 0 C2 0.875 2 0.875 3.25 3.4375 C3.4975 4.241875 3.745 5.04625 4 5.875 C4.33 5.215 4.66 4.555 5 3.875 C5.66 3.875 6.32 3.875 7 3.875 C7.33 3.215 7.66 2.555 8 1.875 C8 4.845 8 7.815 8 10.875 C7.67 10.215 7.34 9.555 7 8.875 C6.278125 9.37 5.55625 9.865 4.8125 10.375 C1.85151341 11.95419285 0.28746971 12.15678312 -3 11.875 C-3.33 11.215 -3.66 10.555 -4 9.875 C-2.35 9.215 -0.7 8.555 1 7.875 C0.81171228 5.43019921 0.81171228 5.43019921 0 2.875 C-1.96758273 1.51479849 -1.96758273 1.51479849 -4 0.875 C-2 -0.125 -2 -0.125 0 0 Z " fill="#284D71" transform="translate(510,617.125)"/>
<path d="M0 0 C0.33 0 0.66 0 1 0 C1.33865898 3.52034206 1.66996095 7.04134018 2 10.5625 C2.09539062 11.55314453 2.19078125 12.54378906 2.2890625 13.56445312 C2.77008121 18.73540428 3.11653634 23.80684952 3 29 C2.34 29 1.68 29 1 29 C0.87625 27.9275 0.7525 26.855 0.625 25.75 C0.23860708 22.19183921 0.23860708 22.19183921 -1.05419922 20.03613281 C-2.17996052 17.61257853 -2.09585129 16.3010656 -1.7578125 13.671875 C-1.66113281 12.87265625 -1.56445312 12.0734375 -1.46484375 11.25 C-1.29662109 10.0125 -1.29662109 10.0125 -1.125 8.75 C-1.02058594 7.90953125 -0.91617187 7.0690625 -0.80859375 6.203125 C-0.54995635 4.13402579 -0.27642363 2.06679821 0 0 Z " fill="#082A52" transform="translate(452,293)"/>
<path d="M0 0 C8.25 0 16.5 0 25 0 C25 0.33 25 0.66 25 1 C20.05 1.33 15.1 1.66 10 2 C10 2.66 10 3.32 10 4 C9.01 4.495 9.01 4.495 8 5 C8.33 5.66 8.66 6.32 9 7 C5.9168649 5.80100302 2.93720508 4.52299523 0 3 C0 2.01 0 1.02 0 0 Z " fill="#4F6B86" transform="translate(428,284)"/>
<path d="M0 0 C0.33 0 0.66 0 1 0 C1.59199356 5.68313816 0.50212851 8.47423049 -2.80859375 13.10546875 C-4.05595907 15.08898409 -4.44455212 16.74580736 -5 19 C-7.0625 21.25 -7.0625 21.25 -9 23 C-9.33 22.34 -9.66 21.68 -10 21 C-9.19555664 18.84521484 -9.19555664 18.84521484 -7.91015625 16.2109375 C-7.45576172 15.26992188 -7.00136719 14.32890625 -6.53320312 13.359375 C-6.04787109 12.37453125 -5.56253906 11.3896875 -5.0625 10.375 C-4.34030273 8.88613281 -4.34030273 8.88613281 -3.60351562 7.3671875 C-2.40935889 4.90793402 -1.2079369 2.45250665 0 0 Z " fill="#264768" transform="translate(662,558)"/>
<path d="M0 0 C3.83308654 1.44805492 4.8126414 2.6752451 6.875 6.25 C8.10315965 10.34386551 7.92735196 12.86906853 7 17 C6.67 17 6.34 17 6 17 C5.855625 15.7625 5.71125 14.525 5.5625 13.25 C5.21311498 10.43495501 4.79620634 7.7298503 4 5 C3.01 5 2.02 5 1 5 C1 4.01 1 3.02 1 2 C-3.16138263 1.91840426 -6.9472484 2.01751476 -11 3 C-8.31903656 -1.02144516 -4.35163541 -0.60463036 0 0 Z " fill="#44607F" transform="translate(478,595)"/>
<path d="M0 0 C0.66 0.33 1.32 0.66 2 1 C0.38462556 4.89917968 -2.27924873 7.71293772 -5.125 10.75 C-5.59292969 11.25660156 -6.06085937 11.76320313 -6.54296875 12.28515625 C-7.69126541 13.52719141 -8.84508672 14.76411494 -10 16 C-10.70703125 14.265625 -10.70703125 14.265625 -11 12 C-9.63671875 9.859375 -9.63671875 9.859375 -7.6875 7.75 C-7.05199219 7.04359375 -6.41648437 6.3371875 -5.76171875 5.609375 C-4 4 -4 4 -2 4 C-1.34 2.68 -0.68 1.36 0 0 Z " fill="#315270" transform="translate(609,726)"/>
<path d="M0 0 C0.66 0.99 1.32 1.98 2 3 C0.8803014 4.00593243 -0.2459412 5.0045849 -1.375 6 C-2.31472656 6.8353125 -2.31472656 6.8353125 -3.2734375 7.6875 C-5 9 -5 9 -7 9 C-7.268125 9.556875 -7.53625 10.11375 -7.8125 10.6875 C-8.204375 11.450625 -8.59625 12.21375 -9 13 C-9.433125 13.886875 -9.86625 14.77375 -10.3125 15.6875 C-12 18 -12 18 -14.6875 18.8125 C-15.450625 18.874375 -16.21375 18.93625 -17 19 C-11.52509066 12.489297 -5.76776422 6.25012173 0 0 Z " fill="#395C7A" transform="translate(571,693)"/>
<path d="M0 0 C0.66 0.33 1.32 0.66 2 1 C1.54663921 5.87362847 0.2910841 8.39042389 -3 12 C-3 10.68 -3 9.36 -3 8 C-3.598125 8.165 -4.19625 8.33 -4.8125 8.5 C-7 9 -7 9 -10 9 C-6.7 6.03 -3.4 3.06 0 0 Z " fill="#345470" transform="translate(633,383)"/>
<path d="M0 0 C0.33 0 0.66 0 1 0 C1.53107314 2.74837849 2.05015881 5.49812375 2.5625 8.25 C2.71396484 9.02730469 2.86542969 9.80460937 3.02148438 10.60546875 C3.16005859 11.35957031 3.29863281 12.11367188 3.44140625 12.890625 C3.57232666 13.58188477 3.70324707 14.27314453 3.83813477 14.98535156 C4.01710362 17.21287942 3.65206197 18.87506962 3 21 C2.34 21 1.68 21 1 21 C-0.20628008 18.66785852 -1.1654738 16.50357861 -2 14 C-1.67 13.01 -1.34 12.02 -1 11 C-0.77820215 9.10787263 -0.59385985 7.21115528 -0.4375 5.3125 C-0.35371094 4.31863281 -0.26992188 3.32476562 -0.18359375 2.30078125 C-0.12300781 1.54152344 -0.06242187 0.78226562 0 0 Z " fill="#304F71" transform="translate(434,467)"/>
<path d="M0 0 C4.77609498 1.64178265 8.79382904 4.26546702 13 7 C12.01 7.66 11.02 8.32 10 9 C9.34 8.34 8.68 7.68 8 7 C5.32357511 4.81509993 5.32357511 4.81509993 3 5 C3 6.65 3 8.3 3 10 C2.34 10 1.68 10 1 10 C1.020625 8.865625 1.04125 7.73125 1.0625 6.5625 C1.41577477 3.18424326 1.41577477 3.18424326 0 2 C-0.33 3.32 -0.66 4.64 -1 6 C-1.042721 4.33388095 -1.04063832 2.66617115 -1 1 C-0.67 0.67 -0.34 0.34 0 0 Z " fill="#3F5D7C" transform="translate(480,284)"/>
<path d="M0 0 C0.99 0.33 1.98 0.66 3 1 C3.66 0.67 4.32 0.34 5 0 C4.67 3.3 4.34 6.6 4 10 C3.01 10 2.02 10 1 10 C0.01 13.465 0.01 13.465 -1 17 C-1.33 17 -1.66 17 -2 17 C-2.25706972 11.08739655 -1.2982126 5.76081841 0 0 Z " fill="#032B56" transform="translate(422,479)"/>
<path d="M0 0 C0.33 0 0.66 0 1 0 C1.125 7.625 1.125 7.625 0 11 C0.66 11 1.32 11 2 11 C1.43786534 14.37280795 0.56079776 16.97595434 -1 20 C-1.36784131 21.3242287 -1.71202981 22.65613912 -2 24 C-2.66 24 -3.32 24 -4 24 C-3.28621973 15.86290495 -1.67226118 7.98268072 0 0 Z " fill="#365576" transform="translate(690,469)"/>
<path d="M0 0 C1.93080096 0.3701689 3.84605707 0.82258298 5.75 1.3125 C6.79671875 1.57675781 7.8434375 1.84101563 8.921875 2.11328125 C11.70992325 2.91643728 14.33118941 3.86822662 17 5 C13.23375329 6.25541557 11.62811066 5.37061958 8 4 C8.33 4.99 8.66 5.98 9 7 C4.56909529 5.79157144 2.01887244 4.48331435 -1 1 C-0.67 0.67 -0.34 0.34 0 0 Z " fill="#577087" transform="translate(604,282)"/>
<path d="M0 0 C3.86648272 1.04097612 7.49461443 2.03698408 11 4 C11 3.34 11 2.68 11 2 C14.465 1.505 14.465 1.505 18 1 C11.58333333 6.5 11.58333333 6.5 8 7 C5.04431792 5.32915733 2.47160228 3.32441009 0 1 C0 0.67 0 0.34 0 0 Z " fill="#3B5A78" transform="translate(450,858)"/>
<path d="M0 0 C1.65 0 3.3 0 5 0 C1.69984002 4.13937592 -1.17324411 7.58662205 -6 10 C-6.6875 8.1875 -6.6875 8.1875 -7 6 C-5.15840327 3.51384442 -3.99529289 2.99843096 -1 2 C-0.67 1.34 -0.34 0.68 0 0 Z " fill="#234769" transform="translate(528,806)"/>
<path d="M0 0 C2.14453125 0.39453125 2.14453125 0.39453125 4 1 C2.92130607 1.96355244 1.83681257 2.92061417 0.75 3.875 C0.14671875 4.40867187 -0.4565625 4.94234375 -1.078125 5.4921875 C-2.97418746 6.9797487 -4.81290005 8.00322436 -7 9 C-7 9.33 -7 9.66 -7 10 C-8.65 10 -10.3 10 -12 10 C-12 9.34 -12 8.68 -12 8 C-10.948125 7.4225 -9.89625 6.845 -8.8125 6.25 C-6.34762773 4.86350935 -4.48501847 3.55687636 -2.3125 1.6875 C-1.1678125 0.8521875 -1.1678125 0.8521875 0 0 Z " fill="#2B4D6F" transform="translate(470,784)"/>
<path d="M0 0 C1.65 0 3.3 0 5 0 C1.72469104 4.63720719 -1.30435607 8.68542782 -6 12 C-6.625 9.625 -6.625 9.625 -7 7 C-5 5 -5 5 -2.375 4.875 C-1.59125 4.91625 -0.8075 4.9575 0 5 C-0.33 4.01 -0.66 3.02 -1 2 C-0.67 1.34 -0.34 0.68 0 0 Z " fill="#2F4F6F" transform="translate(592,743)"/>
<path d="M0 0 C0 2.33333333 0 4.66666667 0 7 C0.99 7 1.98 7 3 7 C4.4606285 9.64738916 5 10.89448334 5 14 C5.66 14.33 6.32 14.66 7 15 C6.67 15.66 6.34 16.32 6 17 C6.66 17.33 7.32 17.66 8 18 C7.01 18 6.02 18 5 18 C3.38629621 15.9358909 2.03840549 13.97530111 0.6875 11.75 C0.30271484 11.16347656 -0.08207031 10.57695313 -0.47851562 9.97265625 C-1.55078125 8.234375 -1.55078125 8.234375 -3 5 C-2.3143824 2.7120827 -1.65749827 1.65749827 0 0 Z " fill="#355270" transform="translate(241,629)"/>
<path d="M0 0 C2.0625 0.4375 2.0625 0.4375 4 1 C4.44041451 6.37305699 4.44041451 6.37305699 4 9 C1.5 11 1.5 11 -1 12 C-1.02687279 10.18757948 -1.04633715 8.37504767 -1.0625 6.5625 C-1.07410156 5.55316406 -1.08570313 4.54382813 -1.09765625 3.50390625 C-1 1 -1 1 0 0 Z " fill="#052E59" transform="translate(467,471)"/>
<path d="M0 0 C0.99 0.33 1.98 0.66 3 1 C1.56547553 2.93976579 0.12753183 4.87682931 -1.3125 6.8125 C-1.71662109 7.35970703 -2.12074219 7.90691406 -2.53710938 8.47070312 C-4.54284347 11.16132204 -6.5291298 13.72104205 -9 16 C-9 14.35 -9 12.7 -9 11 C-8.34 11 -7.68 11 -7 11 C-7 10.34 -7 9.68 -7 9 C-6.34 9 -5.68 9 -5 9 C-4.67 7.35 -4.34 5.7 -4 4 C-2.68 3.67 -1.36 3.34 0 3 C0 2.01 0 1.02 0 0 Z " fill="#365674" transform="translate(646,680)"/>
<path d="M0 0 C0.64453125 1.81640625 0.64453125 1.81640625 1 4 C-0.20313592 5.5283078 -1.41823448 7.05192498 -2.73828125 8.48046875 C-4.19905613 10.06585121 -4.19905613 10.06585121 -5 12.75 C-6 15 -6 15 -8.625 16.3125 C-9.40875 16.539375 -10.1925 16.76625 -11 17 C-9.24933204 13.11390189 -6.81675994 9.72187742 -4.375 6.25 C-3.95476563 5.64800781 -3.53453125 5.04601562 -3.1015625 4.42578125 C-2.07006863 2.94886957 -1.03535421 1.47420806 0 0 Z " fill="#405D7D" transform="translate(621,630)"/>
<path d="M0 0 C2.475 0.99 2.475 0.99 5 2 C5.66 1.34 6.32 0.68 7 0 C7.33 2.31 7.66 4.62 8 7 C7.01 7 6.02 7 5 7 C4.67 7.66 4.34 8.32 4 9 C2 7.875 2 7.875 0 6 C-0.25 2.8125 -0.25 2.8125 0 0 Z " fill="#062C54" transform="translate(463,620)"/>
<path d="M0 0 C1.32 0.33 2.64 0.66 4 1 C4 4.63 4 8.26 4 12 C4.66 12 5.32 12 6 12 C6 9.69 6 7.38 6 5 C6.33 5 6.66 5 7 5 C7 7.64 7 10.28 7 13 C5.68 13.33 4.36 13.66 3 14 C1.56976822 9.32790951 0.59619955 4.86896303 0 0 Z " fill="#556D88" transform="translate(449,310)"/>
<path d="M0 0 C-3.11016455 3.28788824 -6.01618925 5.83735988 -10 8 C-10.125 5.125 -10.125 5.125 -10 2 C-6.86358686 -1.13641314 -4.14410883 -1.38136961 0 0 Z " fill="#1B4068" transform="translate(502,833)"/>
<path d="M0 0 C2.97 1.65 5.94 3.3 9 5 C5 6 5 6 2 6 C2.66 7.65 3.32 9.3 4 11 C1.97954558 10.39816251 -0.02111039 9.72693904 -2 9 C-2.33 8.34 -2.66 7.68 -3 7 C-1.68 6.34 -0.36 5.68 1 5 C0.67 3.35 0.34 1.7 0 0 Z " fill="#355577" transform="translate(515,477)"/>
<path d="M0 0 C1.32 0 2.64 0 4 0 C4 2.31 4 4.62 4 7 C3.01 7.33 2.02 7.66 1 8 C0.67 8.66 0.34 9.32 0 10 C-0.66 9.67 -1.32 9.34 -2 9 C-1.34 6.03 -0.68 3.06 0 0 Z " fill="#043159" transform="translate(467,603)"/>
<path d="M0 0 C1.32 0 2.64 0 4 0 C4 0.66 4 1.32 4 2 C4.66 2 5.32 2 6 2 C6 3.65 6 5.3 6 7 C4.02 7 2.04 7 0 7 C0.66 6.67 1.32 6.34 2 6 C1.01 5.67 0.02 5.34 -1 5 C-0.67 3.35 -0.34 1.7 0 0 Z " fill="#062C55" transform="translate(513,600)"/>
<path d="M0 0 C2.32378307 3.4856746 2.63078302 5.86476981 3 10 C2.67 10.99 2.34 11.98 2 13 C0.68 13 -0.64 13 -2 13 C-2.33 12.01 -2.66 11.02 -3 10 C-2.34 9.67 -1.68 9.34 -1 9 C-0.53348793 6.87423218 -0.53348793 6.87423218 -0.375 4.4375 C-0.30023438 3.61121094 -0.22546875 2.78492188 -0.1484375 1.93359375 C-0.09945313 1.29550781 -0.05046875 0.65742188 0 0 Z " fill="#12365F" transform="translate(436,485)"/>
<path d="M0 0 C-1.47721422 3.45201639 -3.43794001 5.64961936 -6.125 8.25 C-6.84945312 8.95640625 -7.57390625 9.6628125 -8.3203125 10.390625 C-8.87460937 10.92171875 -9.42890625 11.4528125 -10 12 C-10.33 11.01 -10.66 10.02 -11 9 C-4.4375 0 -4.4375 0 0 0 Z " fill="#224365" transform="translate(571,769)"/>
<path d="M0 0 C0.66 0.33 1.32 0.66 2 1 C1.67 1.99 1.34 2.98 1 4 C0.01 4 -0.98 4 -2 4 C-2.33 5.65 -2.66 7.3 -3 9 C-5.76264289 9.59732819 -8.16032769 10 -11 10 C-5.555 5.05 -5.555 5.05 0 0 Z " fill="#3F5E7D" transform="translate(511,751)"/>
<path d="M0 0 C0.875 2.125 0.875 2.125 1 4 C-3 4 -3 4 -5.25 2 C-5.8275 1.34 -6.405 0.68 -7 0 C-6.67 1.32 -6.34 2.64 -6 4 C-7.5 2.625 -7.5 2.625 -9 1 C-9 0.34 -9 -0.32 -9 -1 C-5.1851221 -2.27162597 -3.6068725 -1.64661571 0 0 Z " fill="#15395F" transform="translate(526,484)"/>
<path d="M0 0 C2.475 0.99 2.475 0.99 5 2 C5 2.99 5 3.98 5 5 C1.696686 5.88935377 -1.62294375 6.46274105 -5 7 C-5 6.34 -5 5.68 -5 5 C-4.34 5 -3.68 5 -3 5 C-3 4.34 -3 3.68 -3 3 C-1.68 3 -0.36 3 1 3 C0.67 2.01 0.34 1.02 0 0 Z " fill="#2B4F72" transform="translate(465,467)"/>
<path d="M0 0 C0.66 0.33 1.32 0.66 2 1 C-0.64 4.3 -3.28 7.6 -6 11 C-7.32 10.67 -8.64 10.34 -10 10 C-7.02911382 6.00073014 -3.87051275 3.07881696 0 0 Z " fill="#385978" transform="translate(553,293)"/>
<path d="M0 0 C0.99 0.33 1.98 0.66 3 1 C-0.3 4.3 -3.6 7.6 -7 11 C-7.66 10.34 -8.32 9.68 -9 9 C-8.34 9 -7.68 9 -7 9 C-6.6596875 8.1646875 -6.6596875 8.1646875 -6.3125 7.3125 C-4.64103234 4.36753316 -2.44723648 2.31843456 0 0 Z " fill="#294968" transform="translate(583,755)"/>
<path d="M0 0 C0 3.87851373 -0.86560376 5.76397989 -3 9 C-6.6875 10.375 -6.6875 10.375 -10 11 C-6.79239749 7.19364503 -3.59253891 3.45436433 0 0 Z " fill="#214566" transform="translate(257,613)"/>
<path d="M0 0 C1.03115279 3.26913624 0.9638984 5.86041348 0.5625 9.25 C0.46066406 10.14203125 0.35882813 11.0340625 0.25390625 11.953125 C0.12822266 12.96632813 0.12822266 12.96632813 0 14 C-0.66 14 -1.32 14 -2 14 C-3.20494154 9.05973969 -2.68597922 5.77694113 -1 1 C-0.67 0.67 -0.34 0.34 0 0 Z " fill="#335072" transform="translate(466,598)"/>
<path d="M0 0 C0.33 0 0.66 0 1 0 C1.16682272 4.92127034 1.24828052 8.50343896 -1 13 C-1.99 12.67 -2.98 12.34 -4 12 C-4 10.02 -4 8.04 -4 6 C-3.01 6 -2.02 6 -1 6 C-0.67 4.02 -0.34 2.04 0 0 Z " fill="#556E86" transform="translate(637,319)"/>
<path d="M0 0 C8.25 0 16.5 0 25 0 C25 0.99 25 1.98 25 3 C24.01 2.67 23.02 2.34 22 2 C20.30132812 1.85222064 18.59822511 1.75252934 16.89453125 1.68359375 C15.42016602 1.62075195 15.42016602 1.62075195 13.91601562 1.55664062 C12.89185547 1.51732422 11.86769531 1.47800781 10.8125 1.4375 C9.77673828 1.39431641 8.74097656 1.35113281 7.67382812 1.30664062 C5.1160181 1.20055634 2.55811155 1.09849854 0 1 C0 0.67 0 0.34 0 0 Z " fill="#6D849B" transform="translate(345,284)"/>
<path d="M0 0 C-1.51671964 4.55015893 -5.16891053 6.50057264 -9 9 C-9.33 7.68 -9.66 6.36 -10 5 C-8.35 4.67 -6.7 4.34 -5 4 C-4.67 3.01 -4.34 2.02 -4 1 C-2 0 -2 0 0 0 Z " fill="#2A4B6C" transform="translate(511,824)"/>
<path d="M0 0 C0.33 0.66 0.66 1.32 1 2 C2.98 1.67 4.96 1.34 7 1 C6.67 3.97 6.34 6.94 6 10 C5.34 8.68 4.68 7.36 4 6 C3.01 6.33 2.02 6.66 1 7 C0.67 4.69 0.34 2.38 0 0 Z " fill="#032A59" transform="translate(498,602)"/>
<path d="M0 0 C0.66 0 1.32 0 2 0 C2.66 2.97 3.32 5.94 4 9 C1 9 1 9 -0.6875 7.5 C-1.120625 7.005 -1.55375 6.51 -2 6 C-1.34 4.02 -0.68 2.04 0 0 Z " fill="#042F5E" transform="translate(465,486)"/>
<path d="M0 0 C0.33 1.32 0.66 2.64 1 4 C0.01 4.33 -0.98 4.66 -2 5 C-2.12375 5.639375 -2.2475 6.27875 -2.375 6.9375 C-2.58125 7.618125 -2.7875 8.29875 -3 9 C-5.5625 10.25 -5.5625 10.25 -8 11 C-5.50127818 7.1626772 -2.9156164 3.54039134 0 0 Z " fill="#375577" transform="translate(606,651)"/>
<path d="M0 0 C0.66 0.66 1.32 1.32 2 2 C1.625 5.625 1.625 5.625 1 9 C-1.64 9 -4.28 9 -7 9 C-7 6.36 -7 3.72 -7 1 C-6.67 1 -6.34 1 -6 1 C-5.34 2.98 -4.68 4.96 -4 7 C-3.01 7 -2.02 7 -1 7 C-0.67 4.69 -0.34 2.38 0 0 Z " fill="#4D6D8A" transform="translate(442,604)"/>
<path d="M0 0 C7.96588869 -0.62477558 7.96588869 -0.62477558 12 1.8125 C14 4 14 4 15 7 C13.35 6.67 11.7 6.34 10 6 C9.67 4.68 9.34 3.36 9 2 C6.03 1.67 3.06 1.34 0 1 C0 0.67 0 0.34 0 0 Z " fill="#45617F" transform="translate(504,595)"/>
<path d="M0 0 C0.99 0.33 1.98 0.66 3 1 C3 2.32 3 3.64 3 5 C3.66 5.33 4.32 5.66 5 6 C7 8 7 8 7 11 C7.66 11.33 8.32 11.66 9 12 C8.01 12 7.02 12 6 12 C4.39453125 10.13671875 4.39453125 10.13671875 2.8125 7.6875 C2.28269531 6.88699219 1.75289062 6.08648437 1.20703125 5.26171875 C0 3 0 3 0 0 Z " fill="#304E6C" transform="translate(535,379)"/>
<path d="M0 0 C0.66 0 1.32 0 2 0 C1.34 4.62 0.68 9.24 0 14 C-1.32 13.67 -2.64 13.34 -4 13 C-3.01 13 -2.02 13 -1 13 C-1.309375 11.1746875 -1.309375 11.1746875 -1.625 9.3125 C-2.09963844 5.65193227 -1.76581384 3.32388488 0 0 Z " fill="#344F6F" transform="translate(347,310)"/>
<path d="M0 0 C0.66 0.33 1.32 0.66 2 1 C-0.31 3.64 -2.62 6.28 -5 9 C-6.32 8.67 -7.64 8.34 -9 8 C-6.03 5.36 -3.06 2.72 0 0 Z " fill="#44637F" transform="translate(498,762)"/>
<path d="M0 0 C-0.33 1.65 -0.66 3.3 -1 5 C-1.99 5.33 -2.98 5.66 -4 6 C-4.33 6.66 -4.66 7.32 -5 8 C-5.66 7.34 -6.32 6.68 -7 6 C-3.61538462 0 -3.61538462 0 0 0 Z " fill="#193D62" transform="translate(629,623)"/>
<path d="M0 0 C0.66 0.33 1.32 0.66 2 1 C2 2.65 2 4.3 2 6 C-0.31 6 -2.62 6 -5 6 C-5 4.35 -5 2.7 -5 1 C-4.67 1.66 -4.34 2.32 -4 3 C-2.68 3 -1.36 3 0 3 C0 2.01 0 1.02 0 0 Z " fill="#304C69" transform="translate(438,495)"/>
<path d="M0 0 C0.680625 0.45375 1.36125 0.9075 2.0625 1.375 C5.30435186 3.16836486 8.4203441 4.08753869 12 5 C12 5.33 12 5.66 12 6 C8.04 6 4.08 6 0 6 C0 4.02 0 2.04 0 0 Z " fill="#4E6889" transform="translate(500,406)"/>
<path d="M0 0 C3.02419525 0.58803797 6.01758453 1.22678118 9 2 C9 2.66 9 3.32 9 4 C9.66 4 10.32 4 11 4 C11 4.66 11 5.32 11 6 C6.48986609 5.46939601 3.61621781 3.69113883 0 1 C0 0.67 0 0.34 0 0 Z " fill="#345272" transform="translate(397,407)"/>
<path d="M0 0 C1.32 0.33 2.64 0.66 4 1 C4.12375 1.804375 4.2475 2.60875 4.375 3.4375 C4.684375 4.7059375 4.684375 4.7059375 5 6 C5.66 6.33 6.32 6.66 7 7 C7.99 8.485 7.99 8.485 9 10 C8.34 10.66 7.68 11.32 7 12 C5.83061933 10.18924982 4.66456267 8.37635257 3.5 6.5625 C2.8503125 5.55316406 2.200625 4.54382813 1.53125 3.50390625 C0 1 0 1 0 0 Z " fill="#375472" transform="translate(249,650)"/>
<path d="M0 0 C0.66 0.33 1.32 0.66 2 1 C1.54803755 2.60597325 1.08817673 4.20972508 0.625 5.8125 C0.36976563 6.70582031 0.11453125 7.59914063 -0.1484375 8.51953125 C-1 11 -1 11 -3 14 C-3.34615998 8.34605369 -2.43425238 4.96993194 0 0 Z " fill="#2F4E6E" transform="translate(724,538)"/>
<path d="M0 0 C0.433125 0.9590625 0.433125 0.9590625 0.875 1.9375 C1.82823451 4.15206079 1.82823451 4.15206079 4 5 C5.03145371 6.30915279 6.03542166 7.64082143 7 9 C4 9 4 9 2.39453125 7.46875 C1.87246094 6.8190625 1.35039062 6.169375 0.8125 5.5 C0.28269531 4.8503125 -0.24710937 4.200625 -0.79296875 3.53125 C-1.19128906 3.0259375 -1.58960938 2.520625 -2 2 C-1.34 1.34 -0.68 0.68 0 0 Z " fill="#385675" transform="translate(324,742)"/>
<path d="M0 0 C2.66666667 2.66666667 5.33333333 5.33333333 8 8 C7.67 8.66 7.34 9.32 7 10 C6.01 9.67 5.02 9.34 4 9 C3.67 8.01 3.34 7.02 3 6 C1.70644173 4.62804426 0.37701298 3.28817344 -1 2 C-0.67 1.34 -0.34 0.68 0 0 Z " fill="#395776" transform="translate(317,658)"/>
<path d="M0 0 C0.33 0.66 0.66 1.32 1 2 C-0.1875 5.5625 -0.1875 5.5625 -2 9 C-4.1875 9.9375 -4.1875 9.9375 -6 10 C-4.79157144 5.56909529 -3.48331435 3.01887244 0 0 Z " fill="#163B5F" transform="translate(246,624)"/>
<path d="M0 0 C0.33 0 0.66 0 1 0 C1.125 3.375 1.125 3.375 1 7 C0.34 7.66 -0.32 8.32 -1 9 C-2.32 9 -3.64 9 -5 9 C-4.67 6.69 -4.34 4.38 -4 2 C-3.01 3.485 -3.01 3.485 -2 5 C-1.34 5 -0.68 5 0 5 C0 3.35 0 1.7 0 0 Z " fill="#032C53" transform="translate(409,474)"/>
<path d="M0 0 C2.140625 0.3984375 2.140625 0.3984375 4 1 C2.85760183 2.33627775 1.71098945 3.66895388 0.5625 5 C-0.07558594 5.7425 -0.71367188 6.485 -1.37109375 7.25 C-2.17740234 8.11625 -2.17740234 8.11625 -3 9 C-3.33 9 -3.66 9 -4 9 C-4.37010337 5.6690697 -4.27461204 4.37268777 -2.25 1.625 C-1.5075 1.08875 -0.765 0.5525 0 0 Z " fill="#305072" transform="translate(566,291)"/>
<path d="M0 0 C4.50884026 2.31883213 6.93906776 5.06451569 10 9 C7.6875 8.8125 7.6875 8.8125 5 8 C3.3125 5.5 3.3125 5.5 2 3 C1.34 2.67 0.68 2.34 0 2 C0 1.34 0 0.68 0 0 Z " fill="#405F7C" transform="translate(389,736)"/>
<path d="M0 0 C-3.76687454 3.93809611 -3.76687454 3.93809611 -6.9453125 4.09765625 C-8.96354167 4.06510417 -10.98177083 4.03255208 -13 4 C-13.33 3.34 -13.66 2.68 -14 2 C-11.69 2.33 -9.38 2.66 -7 3 C-7 2.34 -7 1.68 -7 1 C-4.53721199 -0.231394 -2.7204945 -0.07159196 0 0 Z " fill="#536E8C" transform="translate(483,632)"/>
<path d="M0 0 C1.98 0.495 1.98 0.495 4 1 C3.67 4.63 3.34 8.26 3 12 C1.02250561 9.03375841 0.59769128 7.41537873 0 4 C-0.33 3.01 -0.66 2.02 -1 1 C-0.67 0.67 -0.34 0.34 0 0 Z " fill="#052E58" transform="translate(432,602)"/>
<path d="M0 0 C0.33 0 0.66 0 1 0 C1.36637589 6.35051546 1.36637589 6.35051546 -0.375 9.4375 C-2 11 -2 11 -4 11 C-3.52269162 9.5410574 -3.04308958 8.08286504 -2.5625 6.625 C-2.29566406 5.81289063 -2.02882813 5.00078125 -1.75390625 4.1640625 C-1 2 -1 2 0 0 Z " fill="#304F6E" transform="translate(662,558)"/>
<path d="M0 0 C0.66 0 1.32 0 2 0 C2.36923077 6.52307692 2.36923077 6.52307692 0.5 8.9375 C0.005 9.288125 -0.49 9.63875 -1 10 C-1.33 9.01 -1.66 8.02 -2 7 C-1.67 6.34 -1.34 5.68 -1 5 C-0.64386903 3.33805547 -0.30791692 1.671549 0 0 Z " fill="#2E506E" transform="translate(526,488)"/>
<path d="M0 0 C0.6484375 1.765625 0.6484375 1.765625 1 4 C0.0390625 5.921875 0.0390625 5.921875 -1.375 7.75 C-1.83648438 8.36359375 -2.29796875 8.9771875 -2.7734375 9.609375 C-3.17820312 10.06828125 -3.58296875 10.5271875 -4 11 C-4.33 11 -4.66 11 -5 11 C-4.67 8.69 -4.34 6.38 -4 4 C-3.01 4 -2.02 4 -1 4 C-0.67 2.68 -0.34 1.36 0 0 Z " fill="#335374" transform="translate(657,665)"/>
<path d="M0 0 C1.98 0 3.96 0 6 0 C5.25 2.4375 5.25 2.4375 4 5 C1.875 5.8125 1.875 5.8125 0 6 C0 4.02 0 2.04 0 0 Z " fill="#082F56" transform="translate(429,624)"/>
<path d="M0 0 C0.99 0.33 1.98 0.66 3 1 C3.6875 3.0625 3.6875 3.0625 4 5 C3.236875 4.773125 2.47375 4.54625 1.6875 4.3125 C0.800625 4.209375 -0.08625 4.10625 -1 4 C-2.8354799 5.33378575 -2.8354799 5.33378575 -4 7 C-4.66 6.67 -5.32 6.34 -6 6 C-4.02 4.02 -2.04 2.04 0 0 Z " fill="#35536F" transform="translate(274,596)"/>
<path d="M0 0 C0.33 0.66 0.66 1.32 1 2 C1.66 2 2.32 2 3 2 C3 4.31 3 6.62 3 9 C2.01 9.33 1.02 9.66 0 10 C0 6.7 0 3.4 0 0 Z " fill="#06325F" transform="translate(393,489)"/>
<path d="M0 0 C0.33 0 0.66 0 1 0 C1.06058594 0.61488281 1.12117188 1.22976563 1.18359375 1.86328125 C1.26738281 2.67152344 1.35117187 3.47976563 1.4375 4.3125 C1.51871094 5.11300781 1.59992188 5.91351563 1.68359375 6.73828125 C1.95265693 9.16087179 1.95265693 9.16087179 3 12 C2.34 12 1.68 12 1 12 C-2.2 5.72307692 -2.2 5.72307692 -1.1875 2.0625 C-0.795625 1.381875 -0.40375 0.70125 0 0 Z " fill="#32526E" transform="translate(509,472)"/>
<path d="M0 0 C1.32 0.66 2.64 1.32 4 2 C0.535 4.97 0.535 4.97 -3 8 C-2.67 6.35 -2.34 4.7 -2 3 C-1.34 3 -0.68 3 0 3 C0 2.01 0 1.02 0 0 Z " fill="#294A6C" transform="translate(555,781)"/>
<path d="M0 0 C0 4.35251187 -2.06165511 5.92809398 -5 9 C-7.171875 9.6796875 -7.171875 9.6796875 -9 10 C-8.06409496 8.8944811 -7.12620142 7.79064547 -6.1875 6.6875 C-5.66542969 6.07261719 -5.14335938 5.45773437 -4.60546875 4.82421875 C-3.12827531 3.14575321 -1.59960869 1.56117966 0 0 Z " fill="#3C5C7A" transform="translate(553,712)"/>
<path d="M0 0 C2.0245738 1.93254772 3.42105792 3.63158688 5 6 C4.625 8.1875 4.625 8.1875 4 10 C0.06153846 5.69230769 0.06153846 5.69230769 -0.25 2.1875 C-0.1675 1.465625 -0.085 0.74375 0 0 Z " fill="#2E4C6D" transform="translate(281,606)"/>
<path d="M0 0 C1.31223496 3.93670488 0.24296256 6.12488144 -1 10 C-1.99 10 -2.98 10 -4 10 C-3.43454163 6.04179141 -2.19097652 3.3340947 0 0 Z " fill="#2C4D6E" transform="translate(642,597)"/>
<path d="M0 0 C2.5 1 2.5 1 4 2 C1.21330763 3.39334618 -0.97020044 2.62120522 -3.95703125 2.19140625 C-6.46252713 1.95666572 -8.58613759 2.3211012 -11 3 C-8.32129852 -1.01805223 -4.35151188 -0.53408898 0 0 Z " fill="#56718C" transform="translate(478,595)"/>
<path d="M0 0 C1.1171875 1.734375 1.1171875 1.734375 2 4 C1.3203125 6.140625 1.3203125 6.140625 0.125 8.25 C-0.26429688 8.95640625 -0.65359375 9.6628125 -1.0546875 10.390625 C-1.36664062 10.92171875 -1.67859375 11.4528125 -2 12 C-2.33 12 -2.66 12 -3 12 C-2.49202991 7.6822542 -1.80317221 3.96697886 0 0 Z " fill="#3A5A79" transform="translate(704,584)"/>
<path d="M0 0 C1.98 0 3.96 0 6 0 C5.67 1.65 5.34 3.3 5 5 C2.525 4.01 2.525 4.01 0 3 C0 2.01 0 1.02 0 0 Z " fill="#082D57" transform="translate(508,491)"/>
<path d="M0 0 C1.41196151 2.30234022 2.02997047 3.59471753 1.828125 6.32421875 C1.63734375 7.10410156 1.4465625 7.88398438 1.25 8.6875 C0.97929687 9.86892578 0.97929687 9.86892578 0.703125 11.07421875 C0 13 0 13 -2 14 C-1.855625 13.175 -1.71125 12.35 -1.5625 11.5 C-0.94746848 7.67313722 -0.46439363 3.84783293 0 0 Z " fill="#405C75" transform="translate(410,473)"/>
<path d="M0 0 C1.32 0.66 2.64 1.32 4 2 C3.01 3.32 2.02 4.64 1 6 C-0.32 5.34 -1.64 4.68 -3 4 C-3 3.34 -3 2.68 -3 2 C-2.01 1.34 -1.02 0.68 0 0 Z " fill="#043159" transform="translate(517,466)"/>
<path d="M0 0 C0.66 0 1.32 0 2 0 C2 0.66 2 1.32 2 2 C2.99 2.33 3.98 2.66 5 3 C2.69 4.32 0.38 5.64 -2 7 C-2.125 4.625 -2.125 4.625 -2 2 C-1.34 1.34 -0.68 0.68 0 0 Z " fill="#2C4D70" transform="translate(362,286)"/>
<path d="M0 0 C1.875 0.625 1.875 0.625 4 2 C5.25 5.125 5.25 5.125 6 8 C2.83884224 6.63016497 2.0072908 6.0109362 0 3 C0 2.01 0 1.02 0 0 Z " fill="#365475" transform="translate(463,626)"/>
<path d="M0 0 C0.99 0 1.98 0 3 0 C3.33 1.32 3.66 2.64 4 4 C1 6 1 6 -2 6 C-1.34 4.02 -0.68 2.04 0 0 Z " fill="#24486E" transform="translate(404,484)"/>
<path d="M0 0 C0 0.66 0 1.32 0 2 C0.66 2 1.32 2 2 2 C1.67 3.65 1.34 5.3 1 7 C0.67 5.68 0.34 4.36 0 3 C-0.598125 3.165 -1.19625 3.33 -1.8125 3.5 C-4 4 -4 4 -7 4 C-2.25 0 -2.25 0 0 0 Z " fill="#3E5A78" transform="translate(630,388)"/>
<path d="M0 0 C0.99 0.33 1.98 0.66 3 1 C2.46930939 4.82097239 1.50298434 7.06171403 -1 10 C-1.09978121 6.50765756 -0.77842938 3.40562852 0 0 Z " fill="#2B4C6C" transform="translate(558,299)"/>
<path d="M0 0 C0.66 0 1.32 0 2 0 C1.8125 2.375 1.8125 2.375 1 5 C-1.5625 6.3125 -1.5625 6.3125 -4 7 C-2.79618552 4.50638429 -1.54571278 2.31856917 0 0 Z " fill="#2F4F70" transform="translate(614,640)"/>
<path d="M0 0 C3 1 3 1 4.1875 3.0625 C4.455625 3.701875 4.72375 4.34125 5 5 C3.35 4.67 1.7 4.34 0 4 C0 5.65 0 7.3 0 9 C-0.33 9 -0.66 9 -1 9 C-1.09765625 2.84765625 -1.09765625 2.84765625 -1 1 C-0.67 0.67 -0.34 0.34 0 0 Z " fill="#345777" transform="translate(472,600)"/>
<path d="M0 0 C0.66 0.99 1.32 1.98 2 3 C0.68 5.31 -0.64 7.62 -2 10 C-2.66 9.67 -3.32 9.34 -4 9 C-2.94124926 5.59687262 -1.99097846 2.98646769 0 0 Z " fill="#2E4E71" transform="translate(651,581)"/>
<path d="M0 0 C0.99 0.33 1.98 0.66 3 1 C3.73046875 3.06640625 3.73046875 3.06640625 4.1875 5.5625 C4.34605469 6.38878906 4.50460937 7.21507812 4.66796875 8.06640625 C4.77753906 8.70449219 4.88710938 9.34257812 5 10 C4.34 9.67 3.68 9.34 3 9 C3 8.01 3 7.02 3 6 C2.34 6 1.68 6 1 6 C0.67 4.02 0.34 2.04 0 0 Z " fill="#345875" transform="translate(467,486)"/>
<path d="M0 0 C2.97 0.495 2.97 0.495 6 1 C6.66 2.98 7.32 4.96 8 7 C4.2047869 5.50902342 2.38957269 3.24299151 0 0 Z " fill="#55708B" transform="translate(355,778)"/>
<path d="M0 0 C2.64752004 2.57784846 4.94432065 4.91648098 7 8 C5.35 7.67 3.7 7.34 2 7 C1.34 4.69 0.68 2.38 0 0 Z " fill="#3B597A" transform="translate(332,676)"/>
<path d="M0 0 C0.33 0.66 0.66 1.32 1 2 C-0.4375 4.625 -0.4375 4.625 -2 7 C-3.32 6.67 -4.64 6.34 -6 6 C-4.02 4.02 -2.04 2.04 0 0 Z " fill="#3C5977" transform="translate(587,675)"/>
<path d="M0 0 C0.78375 0.185625 1.5675 0.37125 2.375 0.5625 C4.97089775 1.25962266 4.97089775 1.25962266 7 0 C6.34 1.98 5.68 3.96 5 6 C4.67 5.34 4.34 4.68 4 4 C2.68 4 1.36 4 0 4 C0 2.68 0 1.36 0 0 Z " fill="#476888" transform="translate(471,625)"/>
<path d="M0 0 C0.66 0.33 1.32 0.66 2 1 C0.84414715 4.91211733 -0.35534962 7.8745041 -3 11 C-3 9.35 -3 7.7 -3 6 C-2.34 6 -1.68 6 -1 6 C-0.67 4.02 -0.34 2.04 0 0 Z " fill="#31526F" transform="translate(695,602)"/>
<path d="M0 0 C0.66 0 1.32 0 2 0 C2 0.99 2 1.98 2 3 C3.32 3 4.64 3 6 3 C6 3.66 6 4.32 6 5 C4.35 5.33 2.7 5.66 1 6 C0.34 4.35 -0.32 2.7 -1 1 C-0.67 0.67 -0.34 0.34 0 0 Z " fill="#2D5278" transform="translate(435,599)"/>
<path d="M0 0 C0.99 0.33 1.98 0.66 3 1 C3 2.32 3 3.64 3 5 C2.4225 4.814375 1.845 4.62875 1.25 4.4375 C-1.20692525 3.95976454 -2.64397534 4.24270636 -5 5 C-3.35 3.35 -1.7 1.7 0 0 Z " fill="#093057" transform="translate(627,390)"/>
<path d="M0 0 C-1.32 1.32 -2.64 2.64 -4 4 C-5.98 3.34 -7.96 2.68 -10 2 C-6.5980513 -0.09350689 -3.94727588 -0.17942163 0 0 Z " fill="#667B8E" transform="translate(582,283)"/>
<path d="M0 0 C0 1.98 0 3.96 0 6 C-1.98 6 -3.96 6 -6 6 C-6 5.34 -6 4.68 -6 4 C-1.41176471 0 -1.41176471 0 0 0 Z " fill="#28466A" transform="translate(751,120)"/>
<path d="M0 0 C-2.31 1.65 -4.62 3.3 -7 5 C-7.33 4.01 -7.66 3.02 -8 2 C-7.34 2 -6.68 2 -6 2 C-6 1.34 -6 0.68 -6 0 C-4 -1 -4 -1 0 0 Z " fill="#3D5977" transform="translate(488,845)"/>
<path d="M0 0 C1.65 0 3.3 0 5 0 C3.35 1.98 1.7 3.96 0 6 C-1.125 2.25 -1.125 2.25 0 0 Z " fill="#2F5272" transform="translate(528,806)"/>
<path d="M0 0 C0.66 0.33 1.32 0.66 2 1 C1 4 1 4 -2 6 C-4.1875 5.625 -4.1875 5.625 -6 5 C-4.02 3.35 -2.04 1.7 0 0 Z " fill="#3F5D7E" transform="translate(482,775)"/>
<path d="M0 0 C0.66 0 1.32 0 2 0 C2 0.66 2 1.32 2 2 C3.32 2.66 4.64 3.32 6 4 C6 4.66 6 5.32 6 6 C3.13275314 5.42655063 2.1385485 5.1385485 0 3 C0 2.01 0 1.02 0 0 Z " fill="#204162" transform="translate(302,719)"/>
<path d="M0 0 C0.66 0.33 1.32 0.66 2 1 C0.8125 3.4375 0.8125 3.4375 -1 6 C-3.6875 6.8125 -3.6875 6.8125 -6 7 C-4.02 4.69 -2.04 2.38 0 0 Z " fill="#2D4F6F" transform="translate(560,705)"/>
<path d="M0 0 C-0.8125 2.4375 -0.8125 2.4375 -2 5 C-2.99 5.33 -3.98 5.66 -5 6 C-4.625 3.5625 -4.625 3.5625 -4 1 C-2 0 -2 0 0 0 Z " fill="#355474" transform="translate(450,628)"/>
<path d="M0 0 C0.66 0 1.32 0 2 0 C1.46930939 3.82097239 0.50298434 6.06171403 -2 9 C-2.625 7.1875 -2.625 7.1875 -3 5 C-2.34 4.01 -1.68 3.02 -1 2 C-0.67 1.34 -0.34 0.68 0 0 Z " fill="#304F6E" transform="translate(686,618)"/>
<path d="M0 0 C1.32 0.66 2.64 1.32 4 2 C3.67 2.66 3.34 3.32 3 4 C2.01 4 1.02 4 0 4 C0 4.66 0 5.32 0 6 C-0.66 5.67 -1.32 5.34 -2 5 C-1.34 3.35 -0.68 1.7 0 0 Z " fill="#133D66" transform="translate(444,618)"/>
<path d="M0 0 C0.66 0.99 1.32 1.98 2 3 C1.01 3.33 0.02 3.66 -1 4 C-1.33 5.65 -1.66 7.3 -2 9 C-2.99 9.33 -3.98 9.66 -5 10 C-3.66511872 6.40608886 -2.03977277 3.24509304 0 0 Z " fill="#415F7A" transform="translate(637,605)"/>
<path d="M0 0 C0.33 0 0.66 0 1 0 C1 2.97 1 5.94 1 9 C-0.32 8.67 -1.64 8.34 -3 8 C-2.45276317 4.62537285 -1.9451 2.91765 0 0 Z " fill="#032853" transform="translate(458,474)"/>
<path d="M0 0 C3 2 3 2 5 5 C4.625 7.1875 4.625 7.1875 4 9 C1.49701566 6.06171403 0.53069061 3.82097239 0 0 Z " fill="#3C5A79" transform="translate(531,370)"/>
<path d="M0 0 C-1.65 1.65 -3.3 3.3 -5 5 C-5.66 3.68 -6.32 2.36 -7 1 C-3.375 -1.125 -3.375 -1.125 0 0 Z " fill="#335274" transform="translate(502,833)"/>
<path d="M0 0 C3.25543229 0.34879632 4.01873107 1.02133261 6.25 3.5625 C6.8275 4.366875 7.405 5.17125 8 6 C5 6 5 6 3.61328125 4.6875 C2.40885417 3.125 1.20442708 1.5625 0 0 Z " fill="#3F5D7A" transform="translate(313,734)"/>
<path d="M0 0 C3.65316671 1.24976756 4.78065836 1.67098753 7 5 C6.67 5.99 6.34 6.98 6 8 C4.02 5.36 2.04 2.72 0 0 Z " fill="#3F5C79" transform="translate(276,689)"/>
<path d="M0 0 C2.75 -0.25 2.75 -0.25 6 0 C8.375 2 8.375 2 10 4 C9.01 4.495 9.01 4.495 8 5 C8 4.34 8 3.68 8 3 C7.236875 2.87625 6.47375 2.7525 5.6875 2.625 C3 2 3 2 0 0 Z " fill="#5C748C" transform="translate(515,465)"/>
<path d="M0 0 C2.6465335 2.6465335 3.59941997 5.56221264 5 9 C3.68 8.67 2.36 8.34 1 8 C0.67 5.36 0.34 2.72 0 0 Z " fill="#335270" transform="translate(311,400)"/>
<path d="M0 0 C1.98 0 3.96 0 6 0 C5.1875 1.9375 5.1875 1.9375 4 4 C3.01 4.33 2.02 4.66 1 5 C0.67 3.35 0.34 1.7 0 0 Z " fill="#365472" transform="translate(571,285)"/>
<path d="M0 0 C0.66 0.33 1.32 0.66 2 1 C1.6875 2.875 1.6875 2.875 1 5 C0.01 5.66 -0.98 6.32 -2 7 C-2 5.02 -2 3.04 -2 1 C-1.34 0.67 -0.68 0.34 0 0 Z " fill="#214468" transform="translate(613,720)"/>
<path d="M0 0 C4.875 2.75 4.875 2.75 6 5 C3.03 4.505 3.03 4.505 0 4 C0 2.68 0 1.36 0 0 Z " fill="#193F61" transform="translate(349,697)"/>
<path d="M0 0 C0.99 0.33 1.98 0.66 3 1 C1.92598892 3.91517292 1.22189824 5.77810176 -1 8 C-1.125 2.25 -1.125 2.25 0 0 Z " fill="#375674" transform="translate(676,634)"/>
<path d="M0 0 C0.99 0.33 1.98 0.66 3 1 C4 4 4 4 3.0625 6.1875 C2.5365625 7.0846875 2.5365625 7.0846875 2 8 C1.34 5.36 0.68 2.72 0 0 Z " fill="#2A4A6C" transform="translate(463,492)"/>
<path d="M0 0 C0.66 0 1.32 0 2 0 C1.67 2.97 1.34 5.94 1 9 C-1 6 -1 6 -0.625 2.8125 C-0.41875 1.884375 -0.2125 0.95625 0 0 Z " fill="#325274" transform="translate(741,480)"/>
<path d="M0 0 C4.455 0.99 4.455 0.99 9 2 C9 2.33 9 2.66 9 3 C6.03 3 3.06 3 0 3 C0 2.01 0 1.02 0 0 Z " fill="#496582" transform="translate(316,409)"/>
</svg>
