<?xml version="1.0" encoding="utf-8"?>
<!-- Generated by Mocodo 4.1.2 -->
<svg width="241" height="272" viewBox="0 0 241 272" xmlns="http://www.w3.org/2000/svg">
<rect x="0" y="0" width="241" height="272" fill="#f7f7f7" stroke="none" stroke-width="0"/>

<!-- Association APPARTENIR -->
<g>
	<line x1="60" y1="43" x2="186" y2="43" stroke="#5aae61" stroke-width="2"/>
	<line x1="186" y1="178" x2="186" y2="43" stroke="#5aae61" stroke-width="2"/>
	<g>
		<path d="M218 18 a14 14 90 0 1 14 14 V43 h-92 V32 a14 14 90 0 1 14 -14" fill="#a6dba0" stroke="#a6dba0" stroke-width="0"/>
		<path d="M232 43 v11 a14 14 90 0 1 -14 14 H154 a14 14 90 0 1 -14 -14 V43 H92" fill="#d9f0d3" stroke="#d9f0d3" stroke-width="0"/>
		<rect x="140" y="18" width="92" height="50" fill="none" rx="14" stroke="#5aae61" stroke-width="2"/>
		<line x1="140" y1="43" x2="232" y2="43" stroke="#5aae61" stroke-width="1"/>
		<text x="147" y="35.75" fill="#000000" font-family="Verdana" font-size="12">APPARTENIR</text>
	</g>
	<text x="102" y="60" fill="#762a83" font-family="Verdana" font-size="12">0,N</text>
	<text x="191" y="85" fill="#762a83" font-family="Verdana" font-size="12">0,1</text>
</g>

<!-- Association ADMINISTRER -->
<g>
	<line x1="60" y1="43" x2="60" y2="178" stroke="#5aae61" stroke-width="2"/>
	<line x1="186" y1="178" x2="60" y2="178" stroke="#5aae61" stroke-width="2"/>
	<g>
		<path d="M97 153 a14 14 90 0 1 14 14 V178 h-102 V167 a14 14 90 0 1 14 -14" fill="#a6dba0" stroke="#a6dba0" stroke-width="0"/>
		<path d="M111 178 v11 a14 14 90 0 1 -14 14 H23 a14 14 90 0 1 -14 -14 V178 H102" fill="#d9f0d3" stroke="#d9f0d3" stroke-width="0"/>
		<rect x="9" y="153" width="102" height="50" fill="none" rx="14" stroke="#5aae61" stroke-width="2"/>
		<line x1="9" y1="178" x2="111" y2="178" stroke="#5aae61" stroke-width="1"/>
		<text x="16" y="170.75" fill="#000000" font-family="Verdana" font-size="12">ADMINISTRER</text>
	</g>
	<text x="65" y="94" fill="#762a83" font-family="Verdana" font-size="12">0,1</text>
	<text x="117" y="195" fill="#762a83" font-family="Verdana" font-size="12">0,1</text>
</g>

<!-- Entity LIGUE -->
<g>
	<g>
		<rect x="23" y="9" width="74" height="25" fill="#c2a5cf" stroke="none" stroke-width="0" opacity="1"/>
		<rect x="23" y="34" width="74" height="43" fill="#e7d4e8" stroke="none" stroke-width="0" opacity="1"/>
		<rect x="23" y="9" width="74" height="68" fill="none" stroke="#9970ab" stroke-width="2" opacity="1"/>
		<line x1="23" y1="34" x2="97" y2="34" stroke="#9970ab" stroke-width="1"/>
	</g>
	<text x="41" y="26.75" fill="#000000" font-family="Verdana" font-size="12">LIGUE</text>
	<text x="28" y="51.8" fill="#000000" font-family="Verdana" font-size="12">id_ligue</text>
	<line x1="28" y1="54" x2="76" y2="54" stroke="#000000" stroke-width="1"/>
	<text x="28" y="68.8" fill="#000000" font-family="Verdana" font-size="12">nom_ligue</text>
</g>

<!-- Entity EMPLOYE -->
<g>
	<g>
		<rect x="143" y="93" width="86" height="25" fill="#c2a5cf" stroke="none" stroke-width="0" opacity="1"/>
		<rect x="143" y="118" width="86" height="145" fill="#e7d4e8" stroke="none" stroke-width="0" opacity="1"/>
		<rect x="143" y="93" width="86" height="170" fill="none" stroke="#9970ab" stroke-width="2" opacity="1"/>
		<line x1="143" y1="118" x2="229" y2="118" stroke="#9970ab" stroke-width="1"/>
	</g>
	<text x="158" y="110.75" fill="#000000" font-family="Verdana" font-size="12">EMPLOYÉ</text>
	<text x="148" y="135.8" fill="#000000" font-family="Verdana" font-size="12">id_employé</text>
	<line x1="148" y1="138" x2="219" y2="138" stroke="#000000" stroke-width="1"/>
	<text x="148" y="152.8" fill="#000000" font-family="Verdana" font-size="12">droit</text>
	<text x="148" y="169.8" fill="#000000" font-family="Verdana" font-size="12">nom</text>
	<text x="148" y="186.8" fill="#000000" font-family="Verdana" font-size="12">prenom</text>
	<text x="148" y="203.8" fill="#000000" font-family="Verdana" font-size="12">password</text>
	<text x="148" y="220.8" fill="#000000" font-family="Verdana" font-size="12">mail</text>
	<text x="148" y="237.8" fill="#000000" font-family="Verdana" font-size="12">date_arrive</text>
	<text x="148" y="254.8" fill="#000000" font-family="Verdana" font-size="12">date_depart</text>
</g>
</svg>